<svg width="40" height="40" viewBox="0 0 40 40" xmlns="http://www.w3.org/2000/svg">
  <path d="M35.556 0C38 0 40 2 40 4.444v31.112C40 38 38 40 35.556 40H4.444C2 40 0 38 0 35.556V4.444C0 2 2 0 4.444 0h31.112zM16 6H8c-1.105 0-2 .895-2 2v8c0 1.105.895 2 2 2h8c1.105 0 2-.895 2-2V8c0-1.105-.895-2-2-2zm0 16H8c-1.105 0-2 .895-2 2v8c0 1.105.895 2 2 2h8c1.105 0 2-.895 2-2v-8c0-1.105-.895-2-2-2zM32 6h-8c-1.105 0-2 .895-2 2v8c0 1.105.895 2 2 2h8c1.105 0 2-.895 2-2V8c0-1.105-.895-2-2-2zm0 16h-8c-1.105 0-2 .895-2 2v8c0 1.105.895 2 2 2h8c1.105 0 2-.895 2-2v-8c0-1.105-.895-2-2-2z"/>
</svg>
