<svg xmlns="http://www.w3.org/2000/svg" viewBox="0 0 32 40">
  <path d="M18.993 29.23V3.168c0-1.744-1.338-3.158-2.988-3.158s-2.988 1.414-2.988 3.158v26.06l-7.91-8.362a2.878 2.878 0 0 0-4.227 0C-.287 22.1-.287 24.1.88 25.332l13.012 13.753c.07.074.143.144.22.21.033.03.068.054.102.08.04.036.08.07.13.104l.13.08c.04.02.08.05.12.07.04.02.09.04.13.07.04.02.08.04.13.06.04.02.09.03.13.05.04.02.09.04.14.05l.13.032.15.04c.05.01.102.015.154.023.044.006.087.015.132.02a2.773 2.773 0 0 0 .59-.002c.042-.006.085-.015.13-.02.052-.01.105-.016.157-.027.05-.01.1-.024.15-.04.046-.01.09-.02.137-.034.05-.015.097-.034.14-.05l.138-.053c.046-.02.09-.04.13-.064l.14-.07c.04-.023.08-.05.12-.075.042-.03.09-.054.13-.085.043-.03.084-.067.13-.1.034-.03.07-.053.11-.084.07-.063.14-.13.21-.2 0 0 4.34-4.59 13.02-13.76.58-.62.873-1.426.873-2.234a3.24 3.24 0 0 0-.875-2.232c-1.17-1.234-3.06-1.234-4.228 0l-7.91 8.367z"/>
</svg>
