<svg viewBox="0 0 40 32" xmlns="http://www.w3.org/2000/svg">
  <path d="M29.22 18.988H3.157C1.414 18.988 0 17.65 0 16s1.414-2.988 3.158-2.988h26.06l-8.362-7.91c-1.233-1.168-1.233-3.06 0-4.227 1.234-1.167 3.233-1.167 4.466 0l13.753 13.012c.074.07.144.143.21.22.03.033.054.068.08.102.036.04.07.08.104.13l.08.13c.02.04.05.08.07.12.02.04.04.09.07.13.02.04.04.08.06.13.02.04.03.09.05.13.02.04.04.09.05.14l.032.13.04.15c.01.05.015.102.023.154.006.044.015.087.02.132.01.095.015.192.015.29 0 .104-.006.2-.017.3-.006.042-.015.085-.02.13-.01.052-.016.105-.027.157-.01.05-.024.1-.04.15-.01.046-.02.09-.034.137-.015.05-.034.097-.05.14l-.053.138c-.02.046-.04.09-.064.13l-.07.14c-.023.04-.05.08-.075.12-.03.042-.054.09-.085.13-.03.043-.067.084-.1.13-.03.034-.053.07-.084.11-.063.07-.13.14-.2.21 0 0-4.59 4.34-13.76 13.02-.62.58-1.426.873-2.234.873s-1.616-.292-2.232-.875c-1.234-1.17-1.234-3.06 0-4.228l8.362-7.91z"/>
</svg>
