<svg viewBox="0 0 40 40" xmlns="http://www.w3.org/2000/svg">
	<g transform="matrix(.5 0 0 .55556 -51 -43.334)">
		<path fill="none" d="M102 78h80v72h-80z"/>
		<clipPath id="a">
			<path d="M102 78h80v72h-80z"/>
		</clipPath>
		<g clip-path="url(#a)">
			<path d="M142.46 79.611c7.69 0 14.531 1.417 20.522 4.25 5.992 2.835 10.658 6.734 14.003 11.7 3.342 4.964 5.015 10.582 5.015 16.853 0 4.413-.71 8.212-2.132 11.398-1.42 3.183-3.414 5.604-5.978 7.26-2.562 1.655-5.573 2.483-9.027 2.483-2.842 0-5.239-.553-7.19-1.656-1.95-1.104-3.372-2.735-4.264-4.89-3.009 4.363-7.773 6.546-14.294 6.546-3.567 0-6.826-.803-9.78-2.408-2.953-1.605-5.28-3.85-6.98-6.735-1.7-2.883-2.549-6.182-2.549-9.893 0-3.66.85-6.934 2.55-9.818 1.7-2.885 4.011-5.129 6.937-6.734 2.926-1.605 6.2-2.406 9.822-2.406 5.518 0 9.81 1.653 12.874 4.964v-4.439h11.369v24.377c0 3.21 1.337 4.815 4.012 4.815 1.95 0 3.47-1.052 4.557-3.16 1.086-2.106 1.63-5.291 1.63-9.554 0-5.066-1.296-9.543-3.888-13.43-2.59-3.887-6.24-6.922-10.95-9.105-4.709-2.18-10.13-3.272-16.259-3.272-6.131 0-11.55 1.167-16.26 3.5-4.708 2.332-8.359 5.554-10.95 9.667-2.593 4.113-3.889 8.777-3.889 13.993 0 5.318 1.283 10.045 3.847 14.183 2.562 4.138 6.172 7.372 10.826 9.704 4.653 2.333 10.017 3.5 16.09 3.5 6.02 0 11.51-1.103 16.47-3.311l2.675 6.921c-2.509 1.153-5.477 2.044-8.903 2.672-3.428.627-6.841.939-10.242.939-7.912 0-14.908-1.492-20.981-4.475-6.076-2.985-10.785-7.11-14.127-12.378-3.345-5.266-5.017-11.184-5.017-17.755 0-6.52 1.687-12.388 5.057-17.605 3.373-5.216 8.125-9.304 14.254-12.263 6.131-2.96 13.18-4.438 21.15-4.438Zm-.753 45.29c3.065 0 5.573-.914 7.524-2.745 1.95-1.832 2.925-4.376 2.925-7.637 0-3.21-.975-5.718-2.925-7.523-1.95-1.806-4.46-2.708-7.524-2.708-3.12 0-5.628.914-7.523 2.746-1.895 1.83-2.842 4.325-2.842 7.485 0 3.21.947 5.744 2.842 7.599 1.895 1.855 4.403 2.783 7.523 2.783Z" fill-rule="nonzero"/>
		</g>
	</g>
</svg>
