<svg width="40" height="32" viewBox="0 0 40 32" xmlns="http://www.w3.org/2000/svg">
  <path d="M5 0c1 0 1.667.64 1.667 1.6v3.2C6.667 5.76 6 6.4 5 6.4H1.667C.667 6.4 0 5.76 0 4.8V1.6C0 .64.667 0 1.667 0H5zm0 12.8c1 0 1.667.64 1.667 1.6v3.2c0 .96-.667 1.6-1.667 1.6H1.667c-1 0-1.667-.64-1.667-1.6v-3.2c0-.96.667-1.6 1.667-1.6H5zm0 12.8c1 0 1.667.64 1.667 1.6v3.2C6.667 31.36 6 32 5 32H1.667C.667 32 0 31.36 0 30.4v-3.2c0-.96.667-1.6 1.667-1.6H5zM38.333 0c1 0 1.667.64 1.667 1.6v3.2c0 .96-.667 1.6-1.667 1.6H15c-1 0-1.667-.64-1.667-1.6V1.6C13.333.64 14 0 15 0h23.333zm0 12.8c1 0 1.667.64 1.667 1.6v3.2c0 .96-.667 1.6-1.667 1.6H15c-1 0-1.667-.64-1.667-1.6v-3.2c0-.96.667-1.6 1.667-1.6h23.333zm0 12.8c1 0 1.667.64 1.667 1.6v3.2c0 .96-.667 1.6-1.667 1.6H15c-1 0-1.667-.64-1.667-1.6v-3.2c0-.96.667-1.6 1.667-1.6h23.333z"/>
</svg>
