<svg viewBox="0 0 40 36" xmlns="http://www.w3.org/2000/svg">
  <path d="M28.057 11.112h5.14L26.37.755c-.42-.708-1.345-.95-2.067-.53-.72.41-.967 1.32-.54 2.028l4.294 8.86zM16.18 2.252c.418-.707.18-1.62-.54-2.03-.722-.41-1.648-.175-2.066.533L6.746 11.12h5.14l4.294-8.867zm21.172 9.93H2.566C1.148 12.182 0 13.31 0 14.702V17.5c0 1.392 1.148 2.52 2.566 2.52h.803l2.47 13.184c.31 1.554 1.752 2.786 3.252 2.786H30.31c1.5 0 2.944-1.232 3.256-2.786l2.49-13.192h1.305c1.42 0 2.57-1.128 2.57-2.52v-2.796c-.01-1.385-1.155-2.513-2.573-2.513zM15.148 25.36v5.685c0 .814-.673 1.426-1.45 1.426-.83 0-1.452-.66-1.452-1.42v-7.973c0-.813.672-1.425 1.45-1.425.83 0 1.452.66 1.452 1.425v2.287zm6.295 0v5.685c0 .814-.673 1.426-1.45 1.426-.83 0-1.452-.66-1.452-1.42v-7.973c0-.813.678-1.425 1.457-1.425.778 0 1.45.66 1.45 1.425v2.287zm6.32 3.3v2.385c0 .765-.624 1.426-1.452 1.426-.772 0-1.45-.61-1.45-1.42v-7.98c0-.764.678-1.424 1.45-1.424.78 0 1.457.612 1.457 1.425v5.59z"/>
</svg>
