<svg xmlns="http://www.w3.org/2000/svg" viewBox="0 0 40 40">
  <path d="M4.443 0C2 0 0 2 0 4.443v31.114C0 38 2 40 4.443 40h31.114C38 40 40 38 40 35.557V4.443C40 2 38 0 35.557 0H4.443zm2.885 6.008c.183-.018.367 0 .553.053l4.27 1.38c.27.08.49.24.666.47.175.23.283.49.324.78l.25 2.39 19.34 2.195c.43.06.756.26.982.593.248.316.338.69.278 1.13l-1.173 6.83c-.04.357-.2.648-.48.878-.278.23-.59.347-.94.347h-17.12l-.34 1.94h16.31c.39 0 .73.143 1.02.426.29.28.433.63.433 1.05 0 .417-.144.77-.433 1.05-.288.28-.628.424-1.02.424h-18.04c-.43 0-.802-.176-1.11-.53-.29-.355-.402-.76-.34-1.22l.77-4.26L10.35 9.95 7.017 8.88c-.39-.125-.677-.366-.852-.72-.175-.357-.21-.734-.107-1.13.124-.397.366-.684.726-.86.18-.09.362-.144.545-.162zm7.068 23.45c.618 0 1.144.22 1.577.657.432.44.65.972.65 1.598 0 .627-.218 1.164-.65 1.613-.433.45-.96.676-1.577.676s-1.14-.225-1.574-.674c-.432-.45-.65-.986-.65-1.613 0-.626.218-1.16.65-1.598.433-.44.957-.658 1.574-.658v-.01zm13.192 0c.618 0 1.14.22 1.574.657.432.44.65.972.65 1.598 0 .627-.214 1.164-.646 1.613-.433.45-.958.676-1.576.676-.618 0-1.144-.225-1.576-.674-.432-.45-.65-.986-.65-1.613 0-.626.217-1.16.65-1.598.432-.44.96-.658 1.576-.658l-.002-.01z" fill-rule="evenodd"/>
</svg>
