<svg viewBox="0 0 40 40" xmlns="http://www.w3.org/2000/svg">
  <path d="M39.576 11.23c.353.447.486.984.398 1.61l-1.677 9.76c-.06.508-.287.926-.684 1.254-.397.328-.846.492-1.346.492H11.82l-.486 2.776h23.3c.56 0 1.044.2 1.456.604.412.403.618.903.618 1.5s-.206 1.097-.618 1.5c-.412.402-.897.604-1.456.604H8.864c-.62 0-1.148-.254-1.59-.76-.41-.508-.573-1.09-.485-1.747l1.1-6.088-1.676-17.1L1.45 4.11C.89 3.932.486 3.59.236 3.082c-.25-.507-.3-1.044-.154-1.61C.258.902.604.49 1.12.24c.514-.254 1.036-.306 1.565-.157l6.09 1.97c.382.12.7.343.95.67.25.33.403.703.462 1.12l.353 3.403 27.624 3.133c.618.09 1.09.37 1.412.85zm-27.58 22.28c.883 0 1.633.312 2.25.94.62.625.928 1.387.928 2.282s-.31 1.664-.927 2.306c-.618.64-1.368.962-2.25.962-.883 0-1.633-.32-2.25-.962-.62-.642-.928-1.41-.928-2.306 0-.895.306-1.656.924-2.283.618-.63 1.368-.94 2.25-.94zm18.843 0c.88 0 1.63.312 2.25.94.615.625.924 1.387.924 2.282s-.31 1.664-.926 2.306c-.62.64-1.37.962-2.25.962-.885 0-1.635-.32-2.25-.962-.62-.642-.93-1.41-.93-2.306 0-.895.31-1.656.928-2.283.616-.63 1.366-.94 2.25-.94z"/>
</svg>
