<svg viewBox="0 0 40 40" xmlns="http://www.w3.org/2000/svg">
	<g transform="matrix(.5 0 0 .55556 -51 -43.334)">
		<path fill="none" d="M102 78h80v72h-80z"/>
			<clipPath id="a">
				<path d="M102 78h80v72h-80z"/>
			</clipPath>
		<g clip-path="url(#a)">
			<path d="m179.124 78.001 2.876-.003-.001 2.59-7.926 7.134.008.006-61.277 55.149-.007-.007-7.92 7.128L102 150l.003-2.59 77.122-69.409Z" fill-rule="nonzero"/>
			<path d="m168.393 95.756 1.732-.585 2.288-.535 2.378-.318 1.85-.063.848.075 1.012.276.984.471.856.63.704.765.528.879.312.905.114.965-.004.264c-.488 3.579-4.164 4.027-8.012 4.508l-2.214.613-2.042.987c-3.178 1.915-5.284 5.16-5.334 8.847v.266c.05 3.687 2.156 6.932 5.334 8.847l.342.2 1.94.877 2.202.565 1.624.12c1.97.27 3.8.629 5.056 1.53.646.746 1.044 1.667 1.104 2.817l-.058.976-.262.923-.48.904-.664.796-.82.666-.954.513-.992.322-1.026.14-1.138-.032-2.286-.225-2.462-.488-2.356-.722-2.112-.885-1.988-1.07c-5.984-3.607-9.952-9.718-10.046-16.662v-.502c.034-2.621.622-5.123 1.662-7.416l12.38-11.144Zm-14.024 19.136a.06.06 0 0 1-.008-.02l-.004-.061.006-.006.006.087Zm10.03-.191-.002.002c0 .01 0 .023.002.034 0 .003.002.005.004.009a.342.342 0 0 1-.004-.045Zm-10.048-.072v-.13.133-.003Zm10.052-.229c-.002.004-.004.007-.004.011-.002.01-.002.022-.002.032l.002.004c0-.016.002-.03.004-.047Zm-10.04-.072-.006-.005.004-.063c.002-.006.004-.013.008-.018l-.006.086Z"/>
			<path d="m144.381 117.367.014 19.157 7.788.016c3.01-.522 5.926 1.204 6.518 3.852.072.319.106.634.106.947v.02c0 .317-.034.64-.106.965-.592 2.647-3.51 4.374-6.518 3.85l-14.146.032c-2.65-.462-4.482-2.505-4.482-4.793v-.054c-.004-.285.02-.565.072-.839l.008-13.48 10.746-9.673Zm-10.74-1.253.016-28.42a4.593 4.593 0 0 1-.102-.983v-.067c-.03-2.311 1.814-4.385 4.482-4.847l.974-.063c.302-.002.608.02.914.066l12.258.026c3.01-.52 5.926 1.206 6.518 3.853.072.317.106.634.106.947v.018c0 .319-.034.641-.106.965-.592 2.65-3.51 4.374-6.518 3.85l-7.818.02.01 14.974-10.734 9.66ZM128.39 131.76c-.063 1.198-.59 2.379-1.585 3.293-1.024.944-2.358 1.431-3.7 1.464l5.284-4.758Zm-12.129-.006-12.67-14.593c-1.018-.937-1.592-2.208-1.592-3.533v-.085c0-1.324.574-2.593 1.592-3.533l15.534-17.892c2.122-1.951 5.56-1.951 7.68 0s2.12 5.116 0 7.067l-12.496 14.358 9.714 11.227-7.762 6.984Z" fill-rule="nonzero"/>
		</g>
	</g>
</svg>
