<svg viewBox="0 0 40 40" xmlns="http://www.w3.org/2000/svg">
	<path fill="none" d="M0 0h40v40H0z"/>
	<path d="M10.483 30.616c-.695 0-1.39-.271-1.92-.814l-7.768-7.94A2.808 2.808 0 0 1 0 19.9c0-.736.286-1.442.795-1.963l7.768-7.94a2.673 2.673 0 0 1 3.84 0 2.82 2.82 0 0 1 0 3.925L6.555 19.9l5.848 5.978a2.82 2.82 0 0 1 0 3.926c-.53.54-1.225.812-1.92.812ZM18.06 2.11c.147-.025.291-.037.435-.037h.01c.151 0 .304.012.458.039l6.129.013c1.505-.29 2.963.67 3.26 2.14.034.177.051.353.051.527v.01c.001.176-.016.356-.052.536-.296 1.47-1.755 2.43-3.26 2.139l-3.91.01.017 25.026 3.894.008c1.505-.29 2.963.67 3.26 2.14.034.177.051.353.051.527v.01a2.65 2.65 0 0 1-.052.537c-.296 1.471-1.755 2.43-3.26 2.139l-7.072.018c-1.326-.257-2.241-1.392-2.241-2.663v-.03c-.002-.158.01-.313.036-.466l.015-29.348a2.823 2.823 0 0 1-.051-.546v-.036c-.015-1.285.906-2.437 2.24-2.693h.042Z" fill-rule="nonzero"/><path d="m37.32 8.608.425.043.506.152.492.262.427.35.353.426.264.488.156.503.057.535-.002.148c-.244 1.987-2.082 2.237-4.007 2.503l-1.107.342-1.02.548a5.996 5.996 0 0 0-2.667 4.915v.148a5.997 5.997 0 0 0 2.667 4.915l.17.11.971.487 1.1.314.812.068c.986.149 1.9.348 2.53.85.322.414.521.926.55 1.564l-.029.544-.13.512-.24.502-.332.442-.41.37-.477.285-.495.179-.514.077-.368-.01-.2-.008-1.145-.124-1.23-.272-1.179-.4-1.055-.493-.994-.594a11.294 11.294 0 0 1-5.024-9.257v-.279a11.295 11.295 0 0 1 5.024-9.257l.79-.483.98-.484 1.094-.41 1.145-.299 1.188-.176.925-.036ZM26.186 20.074a.032.032 0 0 1-.004-.01l-.002-.035.003-.003.003.048Zm5.015-.106h-.002l.001.02a.008.008 0 0 1 .002.005v-.025Zm-5.025-.04v-.072.074-.003Zm5.022-.05v.039-.04Zm.004-.077a.008.008 0 0 1-.002.005l-.001.02h.002l.001-.025Zm-5.02-.04-.002-.003c0-.012 0-.024.002-.034a.032.032 0 0 1 .004-.011 5.4 5.4 0 0 0-.003.048Z"/>
</svg>
