<svg xmlns="http://www.w3.org/2000/svg" viewBox="0 0 40 40">
  <path d="M5.5 12h5c.83 0 1.5.67 1.5 1.5v15c0 .83-.67 1.5-1.5 1.5h-5c-.83 0-1.5-.67-1.5-1.5v-15c0-.83.67-1.5 1.5-1.5zm12 6h5c.83 0 1.5.67 1.5 1.5v9c0 .83-.67 1.5-1.5 1.5h-5c-.83 0-1.5-.67-1.5-1.5v-9c0-.83.67-1.5 1.5-1.5zm12-14h5c.83 0 1.5.67 1.5 1.5v23c0 .83-.67 1.5-1.5 1.5h-5c-.83 0-1.5-.67-1.5-1.5v-23c0-.83.67-1.5 1.5-1.5zM2 32h36c.83 0 1.5.67 1.5 1.5v1c0 .83-.67 1.5-1.5 1.5H2c-.83 0-1.5-.67-1.5-1.5v-1c0-.83.67-1.5 1.5-1.5z"/>
</svg>
