<svg xmlns="http://www.w3.org/2000/svg" width="40" height="40" viewBox="0 0 40 40.000001">
  <path d="M18.175 30.957h3.654c1.01 0 1.82-.82 1.82-1.825V13.91c0-1.01-.82-1.825-1.825-1.825H18.17c-1.01 0-1.824.82-1.824 1.825v15.222c-.004 1.01.815 1.825 1.825 1.825zm10.35 0h3.655c1.01 0 1.825-.82 1.825-1.825v-6.696c0-1.01-.82-1.826-1.825-1.826h-3.654c-1.01 0-1.826.82-1.826 1.826v6.696c-.004 1.01.816 1.825 1.826 1.825zm9.437 1.83H2.038c-.84 0-1.523.68-1.523 1.522v.604c0 .84.68 1.523 1.523 1.523h35.924c.84 0 1.523-.68 1.523-1.523v-.61c0-.842-.68-1.522-1.523-1.522zm-30.138-1.83h3.654c1.01 0 1.826-.82 1.826-1.825V5.384c0-1.01-.82-1.825-1.826-1.825H7.824C6.814 3.56 6 4.373 6 5.38v23.75c-.005 1.01.814 1.826 1.824 1.826z"/>
</svg>
