<svg width="40" height="40" xmlns="http://www.w3.org/2000/svg" viewBox="0 0 40 40"><path d="M29.1119 34.1703l5.6312 5.8802 5.4037-5.295-5.6251-5.888 3.4958-3.4137c.7115-.7006.2412-1.9164-.7484-1.9494l-12.3764-.383c-.6298-.0182-1.1522.4944-1.1545 1.1314l-.0235 12.5293c.0007 1.0101 1.1855 1.5194 1.902.821l3.496-3.4237zM6.0034 10.9949L.1232 5.3636l5.295-5.4037 5.888 5.6252L14.72 2.089c.7006-.7114 1.9164-.241 1.9494.7485l.383 12.3764c.0182.6298-.4943 1.1522-1.1314 1.1546l-12.5293.0234c-1.0101-.0006-1.5194-1.1855-.821-1.902l3.4237-3.496zM11.124 34.2795l-5.6313 5.8802-5.4036-5.295 5.6251-5.888-3.4959-3.4137c-.7114-.7006-.2411-1.9164.7485-1.9494l12.3764-.383c.6298-.0183 1.1522.4943 1.1545 1.1314l.0234 12.5293c-.0006 1.0101-1.1855 1.5194-1.9019.821l-3.496-3.4238zM34.3643 11.124l5.8802-5.6313-5.295-5.4036-5.8881 5.6251-3.4137-3.4959c-.7005-.7114-1.9163-.2411-1.9494.7485l-.383 12.3764c-.0182.6298.4944 1.1522 1.1314 1.1545l12.5293.0234c1.0101-.0006 1.5194-1.1855.821-1.9019l-3.4237-3.496z"/></svg>
