<svg xmlns="http://www.w3.org/2000/svg" viewBox="0 0 40 40">
  <path d="M33.243 2.462c.571 0 1.035.464 1.035 1.036v4.686h4.687c.57 0 1.035.464 1.035 1.035v2.07c0 .572-.464 1.036-1.035 1.036h-4.687v4.686c0 .572-.464 1.036-1.035 1.036h-2.07a1.036 1.036 0 0 1-1.036-1.036v-4.686h-4.686a1.036 1.036 0 0 1-1.036-1.035V9.22c0-.572.464-1.036 1.036-1.036h4.686V3.498c0-.572.464-1.036 1.035-1.036h2.07z"/>
  <path d="M23.707 16.294h3.388v2.646c0 1.479 1.2 2.68 2.68 2.68h3.475V40H0V6.75l16.626 16.625 7.08-7.08z"/>
</svg>
