<svg xmlns="http://www.w3.org/2000/svg" viewBox="0 0 40 40">
  <path fill-rule="evenodd" d="M13.203 0c-.341 0-.853.34-.853.682l-.682 4.607c-1.024.341-1.877 1.023-2.9 1.705L4.674 5.29c-.512-.17-.854 0-1.195.342L.066 11.6c-.17.171.001.683.342 1.024l3.582 2.73c0 .512-.17 1.023-.17 1.706 0 .682 0 1.195.17 1.707L.408 21.666c-.341.341-.34.684-.17 1.025l3.412 5.971c.171.17.512.34 1.024.17l4.263-1.705c.836.668 1.836 1.17 2.838 1.672l1.805-1.805 4.06-4.06c-.334.06-.676.097-1.025.097-3.241 0-5.97-2.729-5.97-5.97 0-3.242 2.729-5.971 5.97-5.971 3.242 0 5.97 2.729 5.97 5.97 0 .35-.036.693-.097 1.028l4.532-4.531a3.5 3.5 0 0 1 .01-.012l2.08-2.08a3.5 3.5 0 0 1 .019-.018l2.467-2.467-2.014-3.521c-.17-.17-.512-.34-1.023-.17l-4.266 1.705c-.853-.682-1.877-1.193-2.9-1.705L20.71.854C20.88.342 20.369 0 20.027 0h-6.824zm16.3 20.97l-8.5 8.499.536.535.018-.018.177-1.154c.74-.37 1.476-.74 2.15-1.174l6.153-6.154-.533-.533z"/>
  <path d="M39.761 16.73l-2.693 2.693-5.483-5.483-2.08 2.08 5.481 5.484-13.446 13.45-5.485-5.485-2.08 2.08 5.483 5.484-1.34 1.34-.026-.026a1.061 1.061 0 0 1-.678.486l-5.113 1.14a1.054 1.054 0 0 1-.982-.285 1.062 1.062 0 0 1-.287-.983l1.14-5.112a1.06 1.06 0 0 1 .487-.677l-.026-.026L34.28 11.246a.814.814 0 0 1 1.15 0l4.333 4.334a.814.814 0 0 1 0 1.15z"/>
</svg>
