<svg viewBox="0 0 36 40" xmlns="http://www.w3.org/2000/svg">
  <path d="M35.704 6.893c-.153-.155-.348-.234-.586-.234h-7.88L25.45 2.31c-.255-.642-.714-1.188-1.377-1.64C23.41.226 22.74 0 22.06 0h-8.162c-.68 0-1.352.225-2.015.676-.663.45-1.122.997-1.377 1.64L8.72 6.658H.84c-.238 0-.433.078-.587.233-.152.16-.23.36-.23.6v1.67c0 .25.077.45.23.6.154.16.35.24.587.24h2.448v24.76c0 1.44.4 2.67 1.2 3.68.798 1.02 1.76 1.527 2.88 1.527h21.22c1.123 0 2.084-.524 2.883-1.573.8-1.05 1.2-2.29 1.2-3.73V9.99h2.45c.24 0 .44-.08.59-.235.16-.156.23-.356.23-.598V7.492c0-.243-.07-.443-.23-.6zM13.516 3.615c.12-.156.263-.25.433-.286h8.08c.17.03.31.13.43.28l1.22 3.04H12.26l1.25-3.05zm15.89 31.036c0 .39-.06.74-.18 1.06-.12.32-.242.56-.37.7-.127.15-.216.22-.267.22H7.37c-.052 0-.14-.07-.27-.22-.126-.14-.25-.38-.37-.7-.118-.32-.177-.67-.177-1.05V9.99h22.852v24.66z"/>
  <path d="M10.634 31.633h1.632c.238 0 .434-.078.587-.234.152-.16.23-.36.23-.6V15.81c0-.243-.078-.442-.23-.598-.153-.156-.35-.234-.587-.234h-1.632c-.238 0-.434.08-.587.235-.153.156-.23.355-.23.598V30.8c0 .244.077.443.23.6.153.155.35.233.587.233zm6.53 0h1.63c.24 0 .435-.078.587-.234.16-.16.23-.36.23-.6V15.81c0-.243-.07-.442-.23-.598-.15-.156-.34-.234-.58-.234h-1.63c-.23 0-.43.08-.58.235-.15.156-.23.355-.23.598V30.8c0 .244.08.443.23.6.156.155.35.233.59.233zm6.528 0h1.632c.238 0 .434-.078.587-.234.16-.16.23-.36.23-.6V15.81c0-.243-.07-.442-.23-.598-.15-.156-.34-.234-.58-.234H23.7c-.238 0-.433.08-.587.235-.153.156-.23.355-.23.598V30.8c0 .244.077.443.23.6.154.155.35.233.587.233z"/>
</svg>
