<svg viewBox="0 0 40 34" xmlns="http://www.w3.org/2000/svg">
  <path d="M.46.515C.764.21 1.125.057 1.54.057h24.568c.416 0 .776.153 1.08.458.303.305.455.666.455 1.084v4.62h3.84c.43 0 .9.1 1.403.31.504.21.908.46 1.21.77l4.752 4.77c.208.21.388.45.54.72.152.27.264.51.336.73.072.21.124.51.155.89.03.38.05.65.06.83v.91c-.01.433-.02.713-.02.842.03 7.196.01 10.797-.05 10.802-.1.01-.64.01-.95 0-.31-.008-.49-.01-.54-.01h-1.53c0 1.7-.6 3.154-1.8 4.36-1.2 1.203-2.65 1.805-4.34 1.805-1.7 0-3.15-.603-4.34-1.807-1.2-1.207-1.8-2.66-1.8-4.36h-9.21c0 1.7-.6 3.153-1.8 4.36-1.2 1.202-2.65 1.804-4.35 1.804-1.7 0-3.147-.605-4.347-1.81-1.2-1.206-1.8-2.66-1.8-4.36-.047 0-.227.003-.538.01-.313.01-.517.01-.613 0l-.54-.047c-.262-.022-.45-.07-.562-.143-.11-.07-.247-.164-.4-.277-.15-.11-.26-.26-.323-.445s-.09-.38-.09-.62V1.6C0 1.18.154.82.457.515zm28.096 29.46c.607.61 1.327.915 2.16.915.83 0 1.55-.306 2.158-.916.608-.61.912-1.333.912-2.168 0-.835-.304-1.558-.912-2.168-.608-.61-1.327-.915-2.16-.915-.83 0-1.55.305-2.158.915-.608.61-.912 1.333-.912 2.168 0 .835.304 1.558.912 2.168zm-.912-14.502h9.213v-.722c0-.2-.072-.38-.216-.53l-4.67-4.69c-.14-.14-.32-.21-.52-.21h-3.79v6.17zM7.06 29.973c.606.61 1.326.917 2.158.917.832 0 1.552-.306 2.16-.916.607-.61.91-1.333.91-2.168 0-.835-.303-1.558-.91-2.168-.608-.61-1.328-.915-2.16-.915-.832 0-1.552.305-2.16.915-.607.61-.91 1.333-.91 2.168 0 .835.302 1.558.91 2.168z"/>
</svg>
