<svg viewBox="0 0 40 39" xmlns="http://www.w3.org/2000/svg">
  <path d="M0 35h40v4H0v-4zm17.695-13.27V2.704C17.695 1.43 18.727.4 20 .4c1.273 0 2.306 1.03 2.306 2.304V21.73l6.104-6.105c.9-.9 2.36-.9 3.26 0 .9.9.9 2.36 0 3.26l-10.04 10.04c-.053.054-.11.105-.17.154-.025.02-.052.033-.078.053l-.102.075-.1.06c-.03.02-.06.04-.094.056l-.103.048c-.033.016-.067.033-.1.047-.035.014-.07.026-.103.04l-.11.04c-.035.01-.07.015-.104.024-.04.01-.077.02-.116.028-.04.008-.08.013-.12.018-.034.006-.068.013-.103.016-.074.007-.15.01-.224.01-.08 0-.156-.003-.23-.01-.035-.004-.068-.01-.102-.015-.04-.004-.08-.01-.12-.02-.04-.004-.072-.015-.11-.025-.035-.01-.07-.016-.104-.027-.036-.01-.072-.024-.11-.037-.033-.01-.068-.02-.102-.034-.033-.014-.066-.03-.1-.046-.034-.02-.07-.035-.104-.054-.03-.016-.06-.036-.093-.054l-.1-.06c-.034-.023-.065-.05-.098-.072l-.085-.06c-.057-.047-.11-.095-.163-.146L8.33 18.884c-.45-.45-.675-1.04-.675-1.63 0-.59.225-1.18.675-1.63.9-.9 2.36-.9 3.26 0l6.105 6.105z" fill-rule="evenodd"/>
</svg>
