<svg viewBox="0 0 40 34" xmlns="http://www.w3.org/2000/svg">
  <path d="M10.44 27.672c-.692 0-1.384-.27-1.912-.81L.792 18.955C.285 18.435 0 17.735 0 17c0-.733.285-1.436.792-1.955l7.736-7.908c1.056-1.08 2.768-1.08 3.824 0s1.056 2.83 0 3.91L6.528 17l5.824 5.954c1.056 1.08 1.056 2.83 0 3.91-.528.538-1.22.808-1.912.808zm19.12 0c-.692 0-1.384-.27-1.912-.81-1.056-1.08-1.056-2.83 0-3.91L33.472 17l-5.824-5.954c-1.056-1.08-1.056-2.83 0-3.91s2.768-1.08 3.824 0l7.736 7.91c1.056 1.078 1.056 2.83 0 3.908l-7.736 7.908c-.528.54-1.22.81-1.912.81zM16.908 34c-.173 0-.348-.017-.524-.052-1.465-.295-2.42-1.747-2.132-3.246l5.473-28.47C20.013.734 21.435-.242 22.9.052c1.465.295 2.42 1.748 2.13 3.246l-5.47 28.47C19.304 33.088 18.173 34 16.907 34z"/>
</svg>
