<svg viewBox="0 0 40 32" xmlns="http://www.w3.org/2000/svg">
  <path d="M3.836 9.904c-.92-.635-1.792-1.508-2.61-2.618C.41 6.176 0 5.143 0 4.19c0-1.178.31-2.16.926-2.946C1.543.458 2.424.064 3.57.064H36.4c.966 0 1.803.356 2.51 1.067.705.71 1.06 1.57 1.06 2.57 0 1.197-.365 2.338-1.094 3.426-.73 1.088-1.636 2.018-2.72 2.79-5.592 3.943-9.072 6.4-10.44 7.367-.15.106-.465.336-.948.69-.483.357-.885.644-1.204.863-.32.22-.707.462-1.16.734-.453.272-.88.477-1.283.612-.4.134-.77.202-1.11.202h-.04c-.34 0-.712-.07-1.113-.202-.402-.134-.83-.34-1.283-.61-.454-.27-.84-.517-1.16-.736-.32-.22-.72-.505-1.204-.86-.484-.356-.8-.586-.948-.69-1.353-.97-3.3-2.35-5.844-4.14-2.543-1.79-4.07-2.87-4.573-3.23zM26.632 20.15c8.466-6.045 12.913-9.31 13.34-9.793v18c0 .998-.35 1.85-1.05 2.562-.698.71-1.54 1.06-2.52 1.06H3.57c-.983 0-1.823-.36-2.522-1.07C.348 30.21 0 29.35 0 28.35v-18c.654.74 1.405 1.4 2.253 1.977 5.383 3.71 9.078 6.32 11.086 7.82.84.63 1.53 1.13 2.06 1.48.53.352 1.23.72 2.11 1.09.87.37 1.69.55 2.45.55H20c.76 0 1.576-.185 2.453-.555.88-.37 1.58-.733 2.11-1.088.526-.356 1.214-.85 2.06-1.486z"/>
</svg>
