<svg xmlns="http://www.w3.org/2000/svg" viewBox="0 0 41.338 41.341">
	<path d="M38.66.057a2.482 2.482 0 00-.785.183c-.528.218-.598.286-1.297.985l-3.67 3.67A20 20 0 0020.568.627a20 20 0 00-20 20 20 20 0 004.28 12.328L1.223 36.58c-.707.706-1.126 1.127-1.252 1.918a2.431 2.431 0 00.724 2.121c1.067 1.025 2.258.688 2.258.688 1.067-.32 1.621-1.006 1.805-1.19l3.638-3.638a20 20 0 0012.172 4.148 20 20 0 0020-20 20 20 0 00-4.156-12.164l3.701-3.701c.708-.708 1.121-1.137 1.21-1.875.125-1.06-.244-1.702-.702-2.127a2.68 2.68 0 00-1.96-.703zM20.658 5.943a15 15 0 018.533 2.668L8.336 29.467a15 15 0 01-2.678-8.524 15 15 0 0115-15zm12.104 6.17a15 15 0 012.896 8.83 15 15 0 01-15 15 15 15 0 01-8.832-2.894l20.936-20.936z"/>
</svg>
