<svg viewBox="0 0 40 40" xmlns="http://www.w3.org/2000/svg">
  <path d="M.18 13.678L.008 1.15C0 .514.515-.007 1.145 0L13.52.182c.99.017 1.482 1.226.78 1.938l-3.445 3.486L16.58 11.4l-5.316 5.383-5.726-5.796-3.444 3.486c-.695.704-1.898.207-1.914-.795zm34.282-2.616l-5.726 5.788-5.317-5.382 5.72-5.796-3.44-3.47c-.7-.712-.21-1.92.78-1.937L38.86.083c.63-.008 1.144.513 1.136 1.15l-.18 12.528c-.017 1.01-1.21 1.5-1.915.79l-3.44-3.48zm-8.76 26.818l3.435-3.477-5.726-5.796 5.32-5.382 5.73 5.796 3.44-3.48c.71-.71 1.9-.21 1.92.79L40 38.86c.007.637-.508 1.16-1.138 1.15l-12.377-.18c-.99-.02-1.48-1.228-.78-1.94zM1.144 39.917C.514 39.925 0 39.404 0 38.767L.18 26.24c.016-1.004 1.21-1.5 1.914-.79l3.444 3.487 5.726-5.796 5.317 5.39-5.72 5.8 3.45 3.477c.704.713.21 1.92-.78 1.938l-12.375.18z" fill-rule="evenodd"/>
</svg>
