<svg viewBox="0 0 40 28" xmlns="http://www.w3.org/2000/svg">
  <path d="M22.76 5.31L24.92.5C16.15-1.032 6.78 1.534 0 8.224l3.63 3.588c5.22-5.157 12.32-7.31 19.13-6.503zm-2.216 4.923c-4.794-.143-9.623 1.56-13.282 5.167l3.632 3.587c2.06-2.036 4.64-3.22 7.316-3.578l2.334-5.18zm6.51-9.183c-.32 0-.583.17-.746.412l-.118.26-9.414 20.907c-.29.51-.463 1.09-.463 1.73 0 1.98 1.634 3.593 3.64 3.593 1.753 0 3.205-1.22 3.56-2.843l.008-.062 4.44-23.105c0-.493-.405-.897-.904-.897zm-.22 16.197c.79.493 1.535 1.067 2.216 1.74l3.63-3.587c-1.452-1.435-3.095-2.548-4.838-3.39l-1.007 5.237zm2.97-15.427l-.97 5.05c2.712 1.112 5.263 2.754 7.48 4.942l3.63-3.588c-2.97-2.932-6.446-5.05-10.14-6.403z"/>
</svg>
