<svg viewBox="0 0 40 40" xmlns="http://www.w3.org/2000/svg">
  <path d="M37.318 9.96c-1.788-3.063-4.214-5.49-7.278-7.278C26.975.894 23.63 0 20 0c-3.628 0-6.974.894-10.04 2.682-3.063 1.788-5.49 4.214-7.277 7.28C.893 13.024 0 16.37 0 20s.894 6.975 2.682 10.04c1.79 3.063 4.215 5.49 7.28 7.278C13.025 39.106 16.37 40 20 40s6.975-.894 10.04-2.682c3.064-1.788 5.49-4.215 7.278-7.28C39.106 26.976 40 23.63 40 20s-.894-6.975-2.682-10.04zM22.502 30.524c-.174-.208-.235-.382-.182-.52-.018.086-.08.164-.183.233-.086-.104-.243-.234-.468-.39-.23-.157-.39-.287-.47-.392l-.15-.22-.24-.38c-.1-.155-.17-.29-.21-.403-.05-.11-.05-.176-.02-.193-.33.14-.81.04-1.43-.29-.13-.07-.31-.25-.55-.55-.24-.3-.5-.43-.76-.39-.09.01-.21.04-.36.09-.15.04-.27.06-.38.06-.11 0-.25-.04-.42-.11-.14-.05-.32-.15-.56-.3-.23-.15-.39-.24-.48-.27l-.34-.19-.41-.21c-.11-.05-.22-.14-.33-.25-.11-.12-.19-.23-.22-.35-.04-.11-.08-.32-.13-.63s-.12-.54-.21-.68c-.1-.17-.25-.35-.44-.52-.19-.17-.36-.26-.52-.26.14 0 .14-.12 0-.35s-.26-.41-.37-.51c-.03-.04-.14-.15-.31-.34-.178-.19-.32-.36-.44-.49-.13-.14-.23-.3-.32-.48s-.11-.34-.05-.46c.02-.02 0-.05-.05-.08-.06-.03-.12-.07-.2-.1-.08-.04-.15-.07-.22-.09-.07-.03-.12-.04-.16-.04.035.07.074.19.117.38.046.18.09.31.145.4.04.07.185.32.445.75.45.73.66 1.26.627 1.61-.1.03-.17.02-.204-.05s-.06-.17-.077-.29c-.02-.12-.04-.21-.057-.26-.05-.11-.19-.22-.4-.34-.214-.12-.35-.24-.4-.37.02 0 .04-.01.07-.03.024-.02.05-.03.063-.03.02-.16-.074-.36-.274-.6-.2-.25-.287-.42-.25-.52-.14-.11-.26-.31-.37-.61-.1-.3-.19-.5-.26-.59-.07-.11-.158-.2-.26-.28-.107-.08-.237-.166-.39-.26-.16-.097-.26-.16-.31-.196-.04-.02-.11-.098-.21-.237-.578-.69-.75-1.065-.52-1.12-.23.055-.418-.114-.56-.505-.15-.39-.2-.69-.15-.9l-.05-.025c.017-.07.026-.27.026-.61 0-.34.028-.645.07-.922.048-.275.13-.414.25-.414-.12.02-.21-.09-.27-.325-.06-.24-.065-.4-.01-.48.014-.06.093-.02.23.1.14.12.22.2.236.23.23-.12.314-.28.26-.47-.03-.07-.215-.25-.545-.545-.75-.487-1.13-.72-1.148-.704.1-.193.075-.36-.08-.5-.17.107-.27.13-.3.08-.026-.05-.048-.15-.066-.284-.02-.14-.06-.215-.13-.232-.09-.02-.19-.086-.31-.21C7.42 8.69 9.46 6.77 12 5.38c.102-.02.293-.03.57-.03.14.02.27.06.39.13.122.07.25.17.38.29.13.12.23.21.3.26.033-.1-.01-.26-.13-.47.032-.1.223-.21.57-.31.4-.05.66-.04.783.03-.105-.16-.28-.38-.52-.65l-.13.13c-.14-.12-.505-.06-1.096.18-.032.01-.12.06-.26.14-.14.08-.25.13-.34.17-.1.03-.205.04-.31.02.834-.45 1.65-.81 2.45-1.07.05.04.14.11.26.22.12.12.216.2.286.25-.05-.03-.087-.01-.105.06-.07.21-.07.38 0 .52.09.12.206.19.354.21.15.02.324.01.533-.023.206-.034.345-.05.415-.05l.26.026c.556.05.773 0 .65-.16.053.07.114.21.183.43.07.22.148.37.235.46.088-.07.105-.19.053-.37-.05-.17-.05-.29 0-.36.02-.03.07-.07.16-.1l.3-.12c.11-.044.19-.074.22-.092.11-.07.04-.19-.2-.36-.03-.02-.11-.042-.22-.08-.11-.03-.21-.07-.3-.1-.08-.036-.18-.084-.27-.145-.09-.06-.14-.13-.13-.205.01-.077.06-.177.14-.3.11-.085.28-.12.51-.103.23.02.41.06.53.13.47.26.54.5.21.71.18.017.38.086.63.21.25.12.34.25.29.39.14-.26.28-.39.42-.39.09.015.17.13.25.35.08.216.13.33.14.35.14.19.28.235.42.13.14-.103.28-.255.43-.455.15-.2.23-.29.25-.27-.17-.07-.19-.14-.05-.21.26-.156.5-.2.71-.13.05.034.12.113.21.234.16.316.13.46-.08.446.16.14.22.31.2.52-.02.21-.16.3-.4.283-.08 0-.21-.04-.37-.13-.17-.088-.29-.13-.38-.14-.09-.008-.21.04-.36.144-.066.09-.16.232-.27.44-.114.2-.21.35-.3.44-.26.26-.695.35-1.3.28.05 0 .045.05-.016.157-.06.104-.142.22-.246.35-.104.13-.165.206-.182.22-.15.176-.26.376-.31.6 0 .037-.01.154-.022.35-.014.2-.05.355-.1.46.21-.05.37.054.49.314.105.24.105.37 0 .39.574-.09 1.08-.05 1.51.106.626.225.98.45 1.07.676.1-.16.355-.17.754-.03.158.086.296.347.418.78.07.26.188.487.35.68.167.19.345.24.536.155l.08-.05c.07-.033.126-.064.17-.09.04-.026.09-.06.14-.104.05-.043.088-.08.09-.116.01-.036 0-.07-.04-.105-.12-.11-.21-.25-.27-.43-.06-.187-.05-.348.04-.487.05-.07.19-.17.42-.31.226-.135.365-.273.42-.41.07-.23-.02-.416-.26-.56-.246-.15-.368-.28-.368-.407 0-.09.06-.19.17-.31.114-.12.16-.24.144-.34 0-.058-.03-.16-.09-.33s-.095-.29-.1-.367c-.01-.08.03-.17.113-.274.12-.07.41-.06.86.016s.744.16.883.248c.052.037.164.09.34.16.172.07.324.14.454.22.13.08.21.15.227.22h-.13c.12.104.2.225.22.365.03.14-.04.24-.19.31.1-.013.24.01.41.08.278.107.286.2.026.29.054-.015.13-.03.22-.05.1-.02.17-.043.22-.08.04-.015.08-.045.13-.09.056-.04.095-.07.12-.08l.12-.023c.05-.007.1.01.155.04.017 0 .056-.04.116-.13l.198-.26c.07-.087.13-.13.18-.13.05 0 .1.02.142.07.04.04.072.09.1.14.025.05.05.11.08.17.023.06.044.11.062.14.037.09.12.18.25.27.13.09.213.18.25.27.02.05.056.18.11.39.05.21.12.35.21.43.084.08.214.14.39.193.032.017.11.01.232-.026.12-.03.22-.04.3-.02.08.02.12.087.12.21.104-.105.156-.175.156-.21.02.227.08.41.17.55.1.136.25.2.46.18l-.05.57c-.057.086-.187.15-.39.19-.21.046-.34.086-.397.12-.05.02-.18.12-.38.31s-.28.303-.243.34c-.298-.33-.74-.427-1.33-.29-.66.107-1.11.21-1.357.316-.273.14-.47.27-.57.39-.015.01-.045.07-.09.18-.04.1-.086.2-.13.283-.043.085-.08.13-.116.13.105-.018.22-.1.35-.248.13-.15.215-.23.25-.25.45-.297.82-.4 1.12-.31.38.102.44.24.18.42-.03.03-.123.042-.27.04-.15-.01-.25-.01-.3.01.156.032.286.08.39.14.105.06.13.143.08.25.276.16.33.33.155.52-.23.23-.5.32-.81.29.05 0 .05.033 0 .1l-.447.29c-.036.014-.15.06-.34.13-.19.07-.32.145-.39.232-.05.07-.08.17-.08.31s-.007.24-.025.31c-.016.07-.086.085-.207.05-.053.1-.213.185-.483.245s-.45.15-.53.27c.1.14.09.274-.03.413-.21.173-.39.156-.547-.05-.085.04-.15.12-.194.26-.04.14-.11.23-.196.283.12.19.104.33-.05.42.015 0 .055.02.115.05.06.038.12.08.19.13.07.056.11.08.13.08-.07.158-.164.236-.285.236.107.28-.023.58-.39.91-.07.07-.18.14-.323.21-.147.07-.28.12-.4.17-.12.04-.19.07-.21.09-.176.16-.307.32-.39.48-.09.17-.1.33-.04.483.06.158.22.26.48.31l.025.21V22l.03.208c.015.12.03.23.04.323.005.1.005.22 0 .37-.01.15-.05.23-.12.25-.067.02-.16 0-.285-.05-.14-.07-.304-.45-.495-1.14-.04-.17-.14-.38-.317-.62-.084.09-.16.15-.22.17-.06.03-.103.03-.13.02l-.142-.12c-.07-.06-.13-.11-.18-.14-.09-.05-.24-.09-.46-.13-.214-.03-.35-.07-.4-.13-.42.32-.67.24-.76-.23-.03.09-.03.21.016.35.05.15.07.23.07.25-.12.23-.31.25-.57.05-.1-.1-.34-.11-.714-.04-.372.08-.62.1-.74.04.016 0 .05.03.1.08.056.04.09.06.11.08-.02.07-.047.13-.08.16-.04.04-.07.05-.107.04-.038-.01-.077-.01-.12 0-.044.01-.083.02-.118.04-.07.05-.156.15-.26.28-.104.13-.18.21-.234.25.107.28.15.49.146.64-.01.15-.04.37-.08.65-.046.29-.067.52-.067.695 0 .27.08.6.25.96.162.36.36.613.583.753.12.07.33.115.63.13.294.02.5 0 .624-.05.102-.05.18-.11.232-.18.05-.07.1-.17.13-.3.04-.13.06-.22.08-.273.12-.33.35-.5.68-.52.21-.02.36.01.46.07.092.06.13.14.113.246-.016.107-.05.21-.102.33-.05.11-.113.233-.19.37-.08.14-.127.24-.143.31-.035.14-.066.337-.09.59-.027.25-.05.4-.066.455.035.017.165.025.39.025 0-.04.014-.09.04-.17.025-.08.04-.13.04-.15.086.14.224.22.415.232.19.02.33-.05.42-.205.03.05.14.18.31.39.175.21.27.38.29.52.015.07.05.18.1.34.05.15.07.26.05.32-.02.06-.103.09-.26.09-.07 0-.112.03-.13.08-.02.05-.02.12 0 .196.018.08.04.15.066.22.02.07.06.144.1.223.04.08.06.13.06.147.31.57.74.73 1.275.47 0 .5-.12.78-.36.83-.14.04-.297-.05-.47-.26zm.39 5.883c-.035-.173-.053-.312-.05-.415-.02-.14.042-.325.18-.56.14-.234.21-.412.21-.533-.28-.07-.383-.3-.314-.68.035-.26.286-.61.755-1.04.33-.3.434-.72.313-1.25-.053-.23-.096-.56-.13-.99-.035-.44-.07-.74-.105-.91 0 .05.09.09.25.14.17.04.27.1.3.17.04-.05.08-.15.13-.29.05-.14.11-.25.16-.32.04-.06.11-.12.22-.2.12-.08.19-.13.22-.15.04-.02.12-.07.24-.17s.22-.17.3-.22c.08-.06.19-.1.32-.12.13-.03.22.01.28.11.09.1.07.26-.05.48-.12.21-.12.37 0 .45.02-.05.04-.17.05-.34.02-.17.07-.3.16-.39.1-.11.2-.17.3-.18.1-.02.18-.01.26.04.08.04.17.1.27.18.1.08.2.12.29.14.26.09.58.28.94.57-.01-.02-.01-.04 0-.07.02-.028.06-.05.11-.08s.1-.05.14-.08c.04-.028.09-.05.14-.067l.08-.027c.12 0 .21-.01.26-.024.05-.02.13 0 .22.05s.16.09.2.115c.04.025.1.073.18.143.09.07.15.125.18.16l.29.18.33.21c.08.05.15.13.21.23.06.106.09.22.07.34.11.02.31.09.63.21.05.033.16.064.326.09.16.026.27.065.32.12-2.515 2.655-5.563 4.295-9.14 4.92z" />
</svg>
