<svg xmlns="http://www.w3.org/2000/svg" viewBox="0 0 40 40">
<path d="M20 0C9 0 0 9 0 20s9 20 20 20 20-9 20-20S31 0 20 0zm0 3c8.837 0 17 8.163 17 17s-8.163 17-17 17S3 28.837 3 20 11.163 3 20 3z"/>
<path d="M21.748 24.583h-3.5c-.008-.53-.07-.476-.07-.59 0-1.198.18-2.182.544-2.953.364-.772 1.092-1.64 2.183-2.605 1.09-.965 1.743-1.597 1.956-1.896.33-.477.498-.998.498-1.568 0-.79-.293-1.466-.88-2.025-.575-.57-1.356-.854-2.34-.854-.95 0-1.744.294-2.383.882-.638.587-1.077 1.484-1.317 2.69L13 15.76c.098-1.625.772-3.745 2.023-4.95 1.26-1.207 2.91-1.81 4.95-1.81 2.147 0 3.855.613 5.124 1.838C26.367 12.053 27 13.47 27 15.092c0 .897-.235 1.746-.705 2.547-.462.8-1.455 1.89-2.98 3.27-.79.71-1.283 1.283-1.478 1.72-.187.432-.107.83-.09 1.95zM18.248 31v-3.667h3.5V31z"/>
</svg>
