<svg viewBox="0 0 40 40" xmlns="http://www.w3.org/2000/svg">
	<path d="M39.756 37.4L2.6.243c-.325-.325-.852-.325-1.178 0L.244 1.423c-.325.325-.325.852 0 1.18l6.89 6.89c-3.29 2.602-5.774 6.15-7.094 10.25-.053.166-.053.345 0 .51C2.874 29.076 10.896 35 20 35c3.56 0 6.985-.902 10.043-2.6l7.356 7.356c.32.325.85.325 1.17 0l1.18-1.18c.324-.324.324-.852 0-1.177zM20 31.666c-6.433 0-11.667-5.234-11.667-11.667 0-2.54.833-4.98 2.333-6.98l3.623 3.62c-.6 1.005-.96 2.142-.96 3.352 0 3.675 2.99 6.666 6.662 6.666 1.21 0 2.346-.357 3.353-.956l3.623 3.624c-2 1.5-4.445 2.332-6.977 2.332zm-.703-17.816c-.13.312-.06.673.18.912l5.76 5.762c.16.16.373.244.59.244.11 0 .22-.02.323-.065.312-.132.514-.44.51-.778-.04-3.65-2.934-6.544-6.585-6.585-.332.036-.646.198-.778.51z"/>
	<path d="M14.032 9.32c.25.25.632.313.95.162 1.59-.762 3.28-1.15 5.018-1.15 6.433 0 11.667 5.235 11.667 11.668 0 1.738-.387 3.427-1.15 5.02-.15.318-.086.698.164.948l2.89 2.888c.16.156.37.244.59.244.23 0 .44-.09.59-.247 2.37-2.39 4.17-5.365 5.21-8.598.06-.166.06-.345 0-.51C37.13 10.925 29.11 5 20 5c-2.498 0-4.954.444-7.298 1.322-.266.1-.463.326-.523.603-.06.277.02.566.22.766l1.624 1.63z"/>
</svg>
