<svg xmlns="http://www.w3.org/2000/svg" viewBox="0 0 40 40">
  <path d="M2.244 12.395a2.214 2.214 0 0 0-2.213 2.212v23.079c0 1.22.991 2.212 2.213 2.212H37.73a2.216 2.216 0 0 0 2.217-2.214V14.609a2.216 2.216 0 0 0-2.217-2.214h-9.992a2.216 2.216 0 0 0-1.566 3.779c.415.415.98.648 1.566.648h7.774v18.649H4.465V16.822h7.775a2.214 2.214 0 0 0 0-4.427H2.244z"/>
  <path d="M22.26 25.631V7.361a2.215 2.215 0 0 0-2.217-2.214c-1.224 0-2.218.99-2.218 2.214v18.27l-5.871-5.86a2.22 2.22 0 0 0-3.135 0 2.208 2.208 0 0 0 0 3.13l9.655 9.643c.052.053.107.102.163.148l.077.06c.03.03.06.05.09.07l.18.12c.03.02.062.04.1.05l.092.05c.032.016.065.026.097.038l.108.04c.033.01.066.016.1.024.036.01.073.02.11.027.04.01.077.013.115.02l.097.013c.073.003.145.01.217.01.08 0 .15-.007.22-.01l.1-.02c.037-.005.076-.01.115-.02.037-.004.073-.015.11-.024.034-.01.068-.017.1-.027.037-.01.07-.025.106-.037.03-.01.065-.024.1-.038.03-.012.06-.03.093-.043.03-.018.07-.03.1-.05.03-.017.06-.036.09-.05l.095-.06c.033-.02.063-.048.095-.07l.08-.06c.053-.045.104-.09.154-.14l9.665-9.65a2.214 2.214 0 0 0 0-3.134 2.218 2.218 0 0 0-3.135 0l-5.869 5.86.021-.01z"/>
</svg>
