<svg viewBox="0 0 40 40" xmlns="http://www.w3.org/2000/svg" fill-rule="evenodd" clip-rule="evenodd" stroke-linejoin="round" stroke-miterlimit="2"><path d="M0 23.5v-7h6V10l20 10L6 30v-6.5H0zM24 36.5c0 .8.7 1.5 1.5 1.5h12c.8 0 1.5-.7 1.5-1.5v-3c0-.8-.7-1.5-1.5-1.5h-12c-.8 0-1.5.7-1.5 1.5v3zM24 6.5c0 .8.7 1.5 1.5 1.5h12c.8 0 1.5-.7 1.5-1.5v-3c0-.8-.7-1.5-1.5-1.5h-12c-.8 0-1.5.7-1.5 1.5v3z"/><path d="M38.5 37c.8 0 1.5-.7 1.5-1.5v-31c0-.8-.7-1.5-1.5-1.5h-3c-.8 0-1.5.7-1.5 1.5v31c0 .8.7 1.5 1.5 1.5h3z"/></svg>