<svg width="36" height="40" viewBox="0 0 36 40" xmlns="http://www.w3.org/2000/svg">
  <g fill-rule="evenodd">
    <path d="M0 40V0l3 3 3-3 3 3 3-3 3 3 3-3 3 3 3-3 3 3 3-3 3 3 3-3v40l-3-3-3 3-3-3-3 3-3-3-3 3-3-3-3 3-3-3-3 3-3-3-3 3zm16.266-18.91v-2.836h-6.75v-4.406h7.593V11H6v17.063h3.516V21.09h6.75zm9.76 6.973h3.42v-.2c-.327-.617-.495-1.527-.503-2.73v-5.496c0-1.422-.46-2.526-1.377-3.31-.918-.786-2.158-1.18-3.72-1.18-1.032 0-1.962.18-2.79.535-.828.355-1.468.845-1.922 1.47-.453.625-.68 1.305-.68 2.04h3.387c0-.477.166-.852.49-1.126.324-.273.77-.41 1.34-.41.65 0 1.125.176 1.425.528.3.35.452.82.452 1.406v.726h-1.56c-1.882.008-3.32.37-4.317 1.09-.998.72-1.496 1.75-1.496 3.094 0 1.094.41 2 1.225 2.72.814.718 1.844 1.077 3.086 1.077 1.312 0 2.38-.457 3.2-1.37.07.452.183.83.34 1.136z"/>
    <path d="M23.224 25.707c.5 0 .96-.11 1.383-.334.422-.223.734-.52.938-.896v-2.18H24.28c-1.696 0-2.6.586-2.708 1.758l-.012.2c0 .42.15.768.445 1.042.297.273.704.41 1.22.41z"/>
  </g>
</svg>
