<svg viewBox="0 0 32 40" xmlns="http://www.w3.org/2000/svg">
  <path d="M.158 21.367c-.25-2.114-.042-4.154.526-6.04 1.89-6.27 7.812-10.878 14.84-10.96V.27c0-.228.29-.35.484-.212l8.664 6.195c.142.106.142.318 0 .415l-8.656 6.195c-.2.138-.485.017-.485-.21v-4.09c-4.62.073-8.56 2.845-10.26 6.764-.64 1.48-.964 3.113-.872 4.83.125 2.357 1.036 4.527 2.473 6.283.77.935.585 2.3-.41 3.01-.943.673-2.264.486-2.99-.408C1.688 26.88.5 24.245.158 21.367zm25.015-7.87c1.445 1.748 2.356 3.927 2.473 6.285.092 1.724-.242 3.358-.877 4.83-1.7 3.918-5.64 6.698-10.26 6.763v-4.09c0-.227-.298-.35-.49-.21L7.36 33.27c-.142.105-.142.317 0 .414l8.656 6.196c.2.138.484.016.484-.212V35.57c7.027-.073 12.96-4.682 14.84-10.96.567-1.885.768-3.926.525-6.04-.334-2.877-1.52-5.512-3.3-7.674-.735-.895-2.047-1.082-2.99-.407-.987.703-1.17 2.07-.402 3.003z"/>
</svg>
