<svg viewBox="0 0 36 40" xmlns="http://www.w3.org/2000/svg">
  <path d="M35.168 18.977c-.52-.53-1.148-.795-1.89-.795h-2.833v-5.455c0-3.485-1.222-6.477-3.667-8.977S21.408 0 18 0c-3.408 0-6.334 1.25-8.78 3.75-2.443 2.5-3.665 5.492-3.665 8.977v5.455H2.72c-.74 0-1.37.265-1.89.795-.517.53-.777 1.174-.777 1.932v16.36c0 .755.26 1.4.778 1.93.52.53 1.15.795 1.89.795h30.56c.74 0 1.37-.266 1.89-.796.52-.53.78-1.175.78-1.93V20.91c0-.758-.26-1.402-.78-1.933zm-10.057-.795H10.89v-5.455c0-2.007.695-3.722 2.084-5.142 1.39-1.42 3.065-2.13 5.028-2.13 1.963 0 3.64.71 5.028 2.13 1.39 1.42 2.083 3.135 2.083 5.142v5.455z"/>
</svg>
