<svg viewBox="0 0 40 40" xmlns="http://www.w3.org/2000/svg">
  <path d="M32.44 22.14H14.17c-1.223 0-2.214-.99-2.214-2.214 0-1.222.99-2.214 2.214-2.214h18.27l-5.86-5.862c-.864-.865-.864-2.267 0-3.13.865-.866 2.267-.866 3.13 0l9.643 9.64c.053.052.102.107.148.163l.06.076c.03.03.05.06.07.09l.06.09.06.09c.02.03.04.062.05.1l.05.092c.016.032.026.065.038.097l.04.107c.01.033.016.066.024.1.01.036.02.073.027.11.01.04.013.077.02.115l.013.097c.003.073.01.145.01.216 0 .08-.007.15-.01.22l-.02.1c-.005.037-.01.076-.02.115-.004.037-.015.073-.024.11-.01.033-.017.067-.027.1-.01.036-.025.07-.037.105-.01.03-.024.065-.038.1-.012.03-.03.06-.043.093-.018.03-.03.07-.05.1-.017.03-.036.06-.05.09l-.06.094c-.02.033-.048.063-.07.095l-.06.08c-.045.053-.09.104-.14.154l-9.65 9.65c-.43.43-1 .65-1.564.65-.57 0-1.135-.214-1.57-.65-.865-.86-.865-2.262 0-3.13l5.86-5.86zM2.36 0h18.452v4.428H4.575v30.997h16.237v4.428H2.362c-1.223 0-2.215-.992-2.215-2.214V2.21C.147.99 1.14 0 2.36 0z"/>
</svg>
