<svg viewBox="0 0 40 40" xmlns="http://www.w3.org/2000/svg">
  <g fill-rule="evenodd">
    <path d="M35.5 0L0 35.5 4.5 40 40 4.5 35.5 0zm-3.705 6.706L35.5 3 37 4.5l-3.706 3.705-1.5-1.5z" fill-rule="nonzero"/>
    <path d="M5.055 7.916l-4.57-1.43 4.57-1.43 1.43-4.57 1.43 4.57 4.57 1.43-4.57 1.43-1.43 4.57m8.745-1.232L12 10.244l3.23-1.013L16.244 6l1.01 3.23 3.232 1.013-3.23 1.01-1.012 3.232m6.46-8.875l-3.047-.953 3.046-.954.954-3.046.953 3.046 3.047.954-3.047.953-.953 3.047m11.046 9.953l-3.046-.953 3.046-.954.954-3.046.953 3.046 3.047.954-3.047.953-.953 3.047"/>
  </g>
</svg>
