<svg xmlns="http://www.w3.org/2000/svg" viewBox="0 0 34 42">
  <path d="M18.217.4a2.492 2.4 0 0 0-2.492 2.4V18c0 .442-.372.8-.83.8-.46 0-.83-.358-.83-.8V6h-.002a2.492 2.4 0 0 0-2.493-2.4A2.492 2.4 0 0 0 9.078 6v20l-3.365-4.434c-.997-1.48-2.943-1.976-4.37-1.128-1.42.867-1.77 2.76-.788 4.234 0 0 5.427 7.91 7.74 11.295C10.61 39.353 14.355 42 21.36 42 32.961 42 34 33.374 34 30.8V9.2a2.492 2.4 0 0 0-2.492-2.4 2.492 2.4 0 0 0-2.492 2.4v10.4c0 .442-.372.8-.83.8-.46 0-.832-.358-.832-.8V4.4A2.492 2.4 0 0 0 24.86 2a2.492 2.4 0 0 0-2.492 2.4V18c0 .442-.372.8-.83.8a.813.813 0 0 1-.828-.8V2.8h-.002A2.492 2.4 0 0 0 18.217.4z"/>
</svg>
