<svg xmlns="http://www.w3.org/2000/svg" fill-rule="evenodd" stroke-linejoin="round" stroke-miterlimit="1.41" clip-rule="evenodd" viewBox="0 0 500 500"><path fill="#bbb" d="M227.78 142.43a160 160 0 0 0-55.56 0l-5.3 42.22a119.9 119.9 0 0 0-15.73 5.72L120 161.44a159.98 159.98 0 0 0-42.57 35.71l23.08 35.75a120.05 120.05 0 0 0-8.37 14.5l-42.5-2.12A160.01 160.01 0 0 0 40 300l40.66 12.54c.58 5.56 1.55 11.07 2.9 16.5l-33.91 25.68a160.01 160.01 0 0 0 27.78 48.13l39.21-16.53c4.02 3.88 8.3 7.48 12.83 10.76L120 438.56a160 160 0 0 0 52.22 19l19.4-37.85c5.58.39 11.18.39 16.75 0l19.41 37.86a160 160 0 0 0 52.22-19l-9.47-41.49c4.52-3.28 8.81-6.88 12.83-10.76l39.2 16.53c12-14.3 21.4-30.59 27.8-48.13l-33.93-25.69a119.97 119.97 0 0 0 2.91-16.49L360 300c0-18.66-3.27-37.18-9.65-54.72l-42.5 2.12a120.05 120.05 0 0 0-8.37-14.5l23.09-35.75c-12-14.3-26.4-26.38-42.57-35.71l-31.2 28.94a119.9 119.9 0 0 0-15.72-5.73l-5.3-42.22zM200 268c17.66 0 32 14.34 32 32s-14.34 32-32 32-32-14.34-32-32 14.34-32 32-32z"/><path fill="#999" d="M369.1 41.67a110 110 0 0 0-38.2 0l-3.64 29.03a82.55 82.55 0 0 0-10.82 3.93L295 54.73a110 110 0 0 0-29.27 24.56l15.87 24.58a82.5 82.5 0 0 0-5.75 9.96l-29.22-1.45A110 110 0 0 0 240 150l27.95 8.62c.4 3.82 1.07 7.61 2 11.34l-23.32 17.66a110.01 110.01 0 0 0 19.1 33.09l26.96-11.36a82.5 82.5 0 0 0 8.82 7.4L295 245.25a110 110 0 0 0 35.9 13.07l13.35-26.03c3.83.27 7.67.27 11.5 0l13.35 26.03a110 110 0 0 0 35.9-13.07l-6.5-28.52a82.5 82.5 0 0 0 8.8-7.4l26.97 11.37a110.01 110.01 0 0 0 19.1-33.09l-23.32-17.66c.93-3.73 1.6-7.52 2-11.34L460 150a110 110 0 0 0-6.63-37.62l-29.22 1.45a82.5 82.5 0 0 0-5.75-9.96l15.87-24.58A110 110 0 0 0 405 54.74l-21.44 19.9a82.55 82.55 0 0 0-10.82-3.94l-3.64-29.03zM350 128a22.01 22.01 0 0 1 0 44 22.01 22.01 0 0 1 0-44z"/></svg>