<svg xmlns="http://www.w3.org/2000/svg" viewBox="0 0 36.035 31.975">
	<path d="M.327 21.335c.403.242 1.362-.368 1.362-.368l3.325-1.992L8.718 16.8c.425-.249.66-.44.667-.784.006-.322-.224-.535-.597-.761-3.735-2.268-3.735-2.28-3.735-2.28l-3.316-2.008c-.375-.227-.965-.587-1.324-.38-.355.203-.35.857-.354 1.37l-.026 3.986-.025 4.013s-.086 1.137.319 1.38z" fill="#009ba9"/><path d="M2.804 0h18.674c.108 0 .582.067.852.186.309.135.608.329.852.588.256.27.469.607.612.974.151.39.247.824.24 1.252a3.949 3.949 0 01-.339 1.496c-.123.28-.31.523-.513.73-.25.255-.54.47-.852.606a2.111 2.111 0 01-.844.168H2.804a2.47 2.47 0 01-.923-.184A2.922 2.922 0 01.185 4a3.085 3.085 0 01-.15-1c0-.338.043-.686.159-1 .17-.46.43-.896.764-1.236.26-.265.588-.453.923-.587A2.5 2.5 0 012.804 0zM2.804 25.975h18.674c.108 0 .582.067.852.186.309.135.608.329.852.588.256.27.469.607.612.974.151.39.247.824.24 1.252a3.949 3.949 0 01-.339 1.496c-.123.28-.31.523-.513.73-.25.255-.54.47-.852.606a2.111 2.111 0 01-.844.168H2.804a2.47 2.47 0 01-.923-.184 2.922 2.922 0 01-1.696-1.816 3.085 3.085 0 01-.15-1c0-.338.043-.686.159-1 .17-.46.43-.896.764-1.236.26-.265.588-.453.923-.587a2.5 2.5 0 01.923-.177z" fill="#383632"/><path d="M14.804 12.95h18.674c.108 0 .582.067.852.186.309.136.608.33.852.588.256.27.469.608.612.974.151.39.247.824.24 1.252a3.949 3.949 0 01-.339 1.496c-.123.28-.31.523-.513.73-.25.255-.54.47-.852.607a2.111 2.111 0 01-.844.167H14.804a2.47 2.47 0 01-.923-.184 2.922 2.922 0 01-1.696-1.816 3.085 3.085 0 01-.15-1c0-.338.043-.686.159-1 .17-.46.43-.896.764-1.236.26-.265.588-.453.923-.587a2.5 2.5 0 01.923-.177z" fill="#009ba9"/>
</svg>
