<svg width="40" height="40" viewBox="0 0 40 40" xmlns="http://www.w3.org/2000/svg">
  <path d="M12.546 35.425H4.428h20.998V25.188h4.427v12.45c0 1.223-.992 2.215-2.214 2.215H2.21c-.61 0-1.165-.248-1.566-.65-.4-.4-.648-.953-.648-1.564V13.21C0 11.99.99 11 2.213 11h11.45v4.428H4.428v19.997zM35.39 7.87L13.935 29.326c-.9.9-2.36.9-3.26 0-.9-.9-.9-2.36 0-3.26L32.127 4.61h-8.633c-1.273 0-2.306-1.03-2.306-2.305C21.19 1.032 22.22 0 23.494 0h14.2c.075 0 .15.004.227.012.036.003.068.01.1.014.04.006.085.01.126.02.038.006.075.017.112.026.036.01.072.017.107.028.037.01.072.025.108.037.036.013.07.025.106.04.032.013.065.03.097.045.036.016.072.032.106.05.033.017.062.037.093.055.034.02.068.04.1.062.035.02.067.043.1.07l.083.06c.056.047.112.097.165.15.058.06.108.114.155.17l.06.084c.023.032.05.065.07.1.023.03.04.065.06.1.02.03.04.06.057.092.02.033.034.07.05.103.016.034.033.066.047.1.014.034.025.07.038.103.014.037.028.073.04.11l.026.104c.01.038.02.076.028.115.008.04.013.08.018.12.005.034.012.068.015.103.005.072.01.145.01.217v14.21c0 .637-.26 1.213-.676 1.63-.417.417-.994.675-1.63.675-1.274 0-2.306-1.032-2.306-2.305V7.87z" fill="#fff"/>
</svg>
