<svg xmlns="http://www.w3.org/2000/svg" viewBox="0 0 36.027 32.016">
	<path d="M2.78 0h18.675c.108 0 .582.067.852.186.309.135.608.329.852.588.255.27.469.607.611.974.152.39.248.824.241 1.252a3.949 3.949 0 01-.34 1.496c-.122.28-.309.523-.512.73-.251.255-.54.47-.852.606a2.111 2.111 0 01-.844.168H2.78a2.47 2.47 0 01-.923-.184A2.922 2.922 0 01.162 4a3.085 3.085 0 01-.15-1c0-.338.043-.686.158-1 .17-.46.431-.896.764-1.236.26-.265.589-.453.923-.587A2.5 2.5 0 012.78 0zM2.77 13.043h18.674c.108 0 .581.067.852.186.309.135.607.329.852.588.255.27.468.607.611.974.152.389.248.824.241 1.252a3.949 3.949 0 01-.34 1.495c-.122.28-.309.524-.512.73-.251.255-.54.47-.852.607a2.111 2.111 0 01-.844.168H2.769a2.47 2.47 0 01-.923-.185 2.922 2.922 0 01-1.695-1.815 3.085 3.085 0 01-.151-1c.001-.339.043-.686.16-1 .17-.46.43-.897.763-1.237.26-.265.588-.453.923-.586a2.5 2.5 0 01.923-.177z" fill="#383632"/>
	<path d="M14.796 26.016H33.47c.108 0 .582.068.852.186.309.136.608.33.852.588.256.27.469.608.612.974.15.39.247.825.24 1.252a3.949 3.949 0 01-.339 1.496c-.123.28-.31.523-.513.73-.25.255-.54.47-.852.607a2.111 2.111 0 01-.844.167H14.796a2.47 2.47 0 01-.923-.184 2.922 2.922 0 01-1.696-1.816 3.085 3.085 0 01-.15-1c0-.338.043-.686.159-1 .17-.46.43-.896.763-1.236.26-.265.589-.453.924-.587a2.5 2.5 0 01.923-.177z" fill="#69a120"/>
</svg>
