<svg xmlns="http://www.w3.org/2000/svg" viewBox="0 0 45 58" stroke-miterlimit="2" clip-rule="evenodd" fill-rule="evenodd" stroke-linejoin="round"><path d="M3.79 57.941c-1.91 0-3.82-2-3.82-4v-50c0-2 1.91-4 3.82-4h23.18l18 18h-14c-2 0-4-2-4-4v-10H3.79v50h37.234l-.054-36h4c-.029 12.344-.016 22.776 0 36 0 2-2.037 4-3.946 4z"/><path d="M7.97 35.929c-.168.3-.246.666-.243 1.015.003.369.095.752.275 1.066.177.307.448.563.748.729.252.14.673.197.831.197l25.222.005c.22 0 .655-.088.935-.259s.525-.431.687-.73c.161-.3.246-.658.247-1.003a2.16 2.16 0 00-.242-1.008 1.97 1.97 0 00-.696-.738 2.114 2.114 0 00-.93-.262l-25.207.02c-.177 0-.557.026-.8.155-.346.188-.633.47-.827.813z" opacity=".96"/><path d="M7.97 43.929c-.168.3-.246.666-.243 1.015.003.369.095.752.275 1.066.177.307.448.563.748.729.252.14.673.197.831.197l25.222.005c.22 0 .655-.088.935-.259s.525-.431.687-.73c.161-.3.246-.658.247-1.003a2.16 2.16 0 00-.242-1.008 1.97 1.97 0 00-.696-.738 2.114 2.114 0 00-.93-.262l-25.207.02c-.177 0-.557.026-.8.155-.346.188-.633.47-.827.813zM7.97 27.929c-.168.3-.246.666-.243 1.015.003.369.095.752.275 1.066.177.307.448.563.748.729.252.14.673.197.831.197l25.222.005c.22 0 .655-.088.935-.259s.525-.431.687-.73c.161-.3.246-.658.247-1.003a2.16 2.16 0 00-.242-1.008 1.97 1.97 0 00-.696-.738 2.114 2.114 0 00-.93-.262l-25.207.02c-.177 0-.557.026-.8.155-.346.188-.633.47-.827.813zM20.015 19.941c.163.3.226.658.23 1 .006.359-.04.74-.212 1.054a1.947 1.947 0 01-.773.744c-.25.136-.776.197-.831.197l-8.86.005c-.077 0-.508-.077-.737-.186-.226-.109-.45-.252-.6-.453-.292-.397-.497-.897-.505-1.39-.007-.422.156-.855.394-1.204.17-.25.429-.441.698-.578.23-.116.635-.175.75-.189l8.854.02c.063 0 .586.057.835.199.315.18.583.463.757.781z"/></svg>