<svg viewBox="0 0 38 40" xmlns="http://www.w3.org/2000/svg">
  <path d="M19 40C8.524 40 0 31.625 0 21.334c0-5.323 2.323-10.407 6.377-13.95 1.12-.978 2.834-.88 3.83.22.998 1.1.897 2.787-.223 3.766C7.09 13.9 5.43 17.53 5.43 21.334c0 7.354 6.088 13.333 13.57 13.333 7.485 0 13.57-5.98 13.57-13.333 0-3.802-1.658-7.433-4.547-9.964-1.124-.98-1.225-2.66-.228-3.766.996-1.1 2.714-1.198 3.833-.22C35.678 10.928 38 16.012 38 21.334 38 31.624 29.476 40 19 40zm2.714-24V2.667C21.714 1.193 20.5 0 19 0c-1.498 0-2.714 1.193-2.714 2.667V16c0 1.474 1.216 2.667 2.715 2.667 1.5 0 2.716-1.193 2.716-2.667z"/>
</svg>
