<svg viewBox="0 0 40 40" xmlns="http://www.w3.org/2000/svg" fill-rule="evenodd" clip-rule="evenodd" stroke-linejoin="round" stroke-miterlimit="2"><path d="M14 23.5v-7h6V10l20 10-20 10v-6.5h-6zM16 3.5c0-.8-.7-1.5-1.5-1.5h-12C1.7 2 1 2.7 1 3.5v3C1 7.3 1.7 8 2.5 8h12c.8 0 1.5-.7 1.5-1.5v-3zM16 33.5c0-.8-.7-1.5-1.5-1.5h-12c-.8 0-1.5.7-1.5 1.5v3c0 .8.7 1.5 1.5 1.5h12c.8 0 1.5-.7 1.5-1.5v-3z"/><path d="M1.5 3C.7 3 0 3.7 0 4.5v31c0 .8.7 1.5 1.5 1.5h3c.8 0 1.5-.7 1.5-1.5v-31C6 3.7 5.3 3 4.5 3h-3z"/></svg>