<svg viewBox="0 0 40 40" xmlns="http://www.w3.org/2000/svg">
  <path d="M37.937 24.41l-5.097-5.1c-1.373-1.372-3.04-2.06-5-2.06-1.993 0-3.692.72-5.098 2.158l-2.156-2.157c1.438-1.4 2.156-3.11 2.156-5.12 0-1.96-.677-3.61-2.034-4.97L15.66 2.09C14.304.693 12.637 0 10.66 0 8.7 0 7.043.68 5.687 2.035L2.083 5.613C.693 6.97 0 8.627 0 10.587c0 1.96.686 3.628 2.06 5l5.096 5.097c1.372 1.373 3.04 2.06 5 2.06 1.993 0 3.692-.72 5.097-2.158l2.156 2.157c-1.44 1.405-2.16 3.112-2.16 5.122 0 1.96.68 3.618 2.03 4.975l5.05 5.072c1.35 1.39 3.02 2.083 5 2.083 1.96 0 3.62-.677 4.97-2.034l3.6-3.57c1.382-1.35 2.08-3.01 2.08-4.97s-.69-3.62-2.06-5zM17.253 13.92c-.05-.048-.2-.203-.453-.465-.253-.26-.43-.437-.527-.527-.098-.09-.253-.212-.466-.368-.212-.155-.42-.26-.624-.318-.205-.057-.43-.086-.675-.086-.653 0-1.21.23-1.666.686-.458.457-.686 1.013-.686 1.667 0 .24.028.46.086.67.057.2.163.41.318.62.155.21.278.36.368.46.09.1.265.27.527.522.26.252.416.403.465.453-.49.51-1.078.76-1.764.76-.67 0-1.226-.22-1.667-.66l-5.1-5.097c-.46-.457-.69-1.013-.69-1.667 0-.636.23-1.183.68-1.64l3.6-3.58c.47-.44 1.03-.66 1.663-.66.655 0 1.21.23 1.67.686l5.05 5.073c.455.456.684 1.012.684 1.665 0 .69-.27 1.287-.81 1.79zm17.352 17.13l-3.603 3.578c-.458.425-1.013.637-1.667.637-.67 0-1.225-.22-1.666-.66l-5.05-5.074c-.46-.45-.69-1.01-.69-1.66 0-.68.27-1.28.81-1.79l.45.47c.25.26.43.44.52.53.1.09.25.22.462.37.21.16.42.26.624.32.206.06.43.09.675.09.655 0 1.21-.23 1.668-.685.456-.456.685-1.012.685-1.665 0-.245-.03-.47-.088-.674-.057-.203-.163-.41-.32-.624-.154-.212-.276-.37-.366-.466-.09-.097-.267-.273-.53-.527l-.464-.45c.49-.52 1.08-.786 1.763-.786.652 0 1.21.23 1.664.686l5.1 5.096c.456.457.684 1.013.684 1.666 0 .636-.23 1.184-.69 1.64z"/>
</svg>
