<svg viewBox="0 0 40 40" xmlns="http://www.w3.org/2000/svg">
  <path d="M8.57 25.714c0 2.857 2.86 2.857 2.86 2.857V40H2.856V25.714S0 25.714 0 22.857v-10C0 10 2.857 10 2.857 10h6.056c-.334.786-.342 1.43-.342 1.43v14.284zm0-17.143c-2.366 0-4.284-1.915-4.284-4.282S6.204 0 8.57 0c2.37 0 4.287 1.92 4.287 4.286 0 1.515-.79 2.84-1.978 3.6-.09.05-.188.097-.27.148-.61.332-1.298.537-2.04.537zM37.144 10C40 10 40 12.857 40 12.857v10c0 2.857-2.857 2.857-2.857 2.857V40H28.57V28.57s2.86 0 2.86-2.856V11.43s-.01-.644-.34-1.43h6.053zm-8.03-2.116c-1.182-.763-1.97-2.085-1.97-3.598C27.144 1.92 29.06 0 31.43 0c2.366 0 4.284 1.92 4.284 4.286 0 2.367-1.918 4.285-4.285 4.285-.746 0-1.43-.202-2.04-.534-.086-.053-.185-.1-.278-.15zM20 8.57c-2.367 0-4.286-1.917-4.286-4.284S17.634 0 20 0c2.367 0 4.286 1.92 4.286 4.286 0 2.367-1.92 4.285-4.286 4.285zm8.57 4.287v10c0 2.857-2.856 2.857-2.856 2.857V40H14.286V25.714s-2.857 0-2.857-2.857v-10C11.43 10 14.283 10 14.283 10h11.428c2.857 0 2.857 2.857 2.857 2.857z"/>
</svg>
