<svg viewBox="0 0 40 40" xmlns="http://www.w3.org/2000/svg">
  <path d="M.043 31.682L0 13.502c-.002-.894.915-1.498 1.74-1.147l16.604 7.075c.458.195.757.644.758 1.142l.043 18.18c.002.893-.915 1.498-1.74 1.146L.8 32.824c-.458-.196-.756-.644-.757-1.142zm38.663-19.517c.658 0 1.25.527 1.25 1.244L40 31.585c0 .497-.295.948-.753 1.145l-16.57 7.154c-.163.07-.33.103-.494.104-.658 0-1.25-.528-1.25-1.244l-.044-18.18c-.004-.497.292-.947.75-1.145l16.57-7.153c.163-.07.33-.104.494-.105zM19.874 0c.173 0 .346.035.507.106L37.85 7.78c.99.437.994 1.837.006 2.277l-17.433 7.758c-.16.072-.334.108-.506.11-.173 0-.346-.036-.507-.107L1.94 10.142c-.99-.435-.993-1.836-.005-2.276L19.368.108c.16-.072.334-.108.506-.108z"/>
</svg>
