<svg viewBox="0 0 36 40" xmlns="http://www.w3.org/2000/svg">
  <g fill-rule="evenodd">
    <path d="M0 40V0l3 3 3-3 3 3 3-3 3 3 3-3 3 3 3-3 3 3 3-3 3 3 3-3v40l-3-3-3 3-3-3-3 3-3-3-3 3-3-3-3 3-3-3-3 3-3-3-3 3zm14.516-17.95h3.082c2.023 0 3.607-.482 4.752-1.446 1.144-.965 1.716-2.284 1.716-3.956 0-1.1-.26-2.084-.785-2.947-.52-.86-1.27-1.525-2.24-1.994-.973-.47-2.1-.703-3.38-.703H11v17.064h3.516V22.05z"/>
    <path d="M14.516 19.203h3.14c.93 0 1.64-.22 2.127-.656.488-.438.733-1.063.733-1.875 0-.836-.246-1.512-.74-2.027-.49-.516-1.17-.782-2.038-.797h-3.222v5.355z"/>
  </g>
</svg>
