<svg xmlns="http://www.w3.org/2000/svg" viewBox="0 0 100 100" fill-rule="evenodd" clip-rule="evenodd" stroke-linejoin="round" stroke-miterlimit="2">
<path fill="none" d="M0 0h100v100H0z"/><path d="M50 0c27.596 0 50 22.404 50 50s-22.404 50-50 50S0 77.596 0 50 22.404 0 50 0zM38.629 44.316c-1.581-2.6-3.154-5.205-4.733-7.806H25.11c-1.628.058-3.102 1.053-3.656 2.539-.137.367-.216.508-.247 1.364v35.888c.091 2.523 1.779 3.826 3.903 3.902h49.78c1.629-.058 3.102-1.052 3.656-2.539.137-.367.216-.508.247-1.363V40.413c-.086-2.401-1.609-3.676-3.625-3.893a25.812 25.812 0 01-.278-.01h-8.796l-4.774 7.806h9.667v28.082H29.013V44.316zm25.438-14.075a2.205 2.205 0 00.135-1.969c-.269-.634-.813-1.034-1.407-1.034h-4.849V14.392c0-1.252-.847-2.267-1.893-2.267H43.947c-1.046 0-1.893 1.015-1.893 2.267v12.846h-4.849c-.594 0-1.138.4-1.407 1.034a2.205 2.205 0 00.135 1.969c4.265 7.14 9.118 14.917 12.795 20.92.297.485.769.772 1.272.772s.975-.287 1.272-.772c4.399-7.026 9.206-15.042 12.795-20.92z"/>
</svg>
