<svg viewBox="0 0 100 100" xmlns="http://www.w3.org/2000/svg" fill-rule="evenodd" clip-rule="evenodd" stroke-linejoin="round" stroke-miterlimit="2">
<path d="M50 0c27.596 0 50 22.404 50 50s-22.404 50-50 50S0 77.596 0 50 22.404 0 50 0zm21.931 20.605c2.079.08 3.9 1.821 3.983 3.983.215 16.927.001 33.857.001 50.786-.027 2.112-1.82 3.992-3.984 4.074-14.59.188-29.182.001-43.772.001-2.111-.028-3.991-1.822-4.074-3.984-.213-16.928-.001-33.858-.001-50.786.027-2.116 1.823-3.991 3.984-4.074 14.62-.182 29.243-.182 43.863 0zm-.358 4.341v50.161H28.426V24.946h43.147zm-6.872 45.35c3.059-.112 2.308-4.1.158-4.336l-.158-.006H35.298c-1.886.069-2.721 2.476-1.563 3.678.33.342.398.622 1.563.664h29.403zm0-8.908c1.887-.07 2.712-2.487 1.563-3.678-.287-.297-.35-.542-1.405-.658l-.158-.006H35.298c-2.297.084-2.622 3.339-.921 4.137.263.123.404.186.921.205h29.403zm0-8.908c3.059-.113 2.308-4.1.158-4.337a8.078 8.078 0 00-.158-.005H35.298c-3.059.111-2.221 4.261 0 4.342h29.403zm0-8.908c3.059-.113 2.308-4.1.158-4.337l-.158-.006H35.298c-3.059.112-2.221 4.261 0 4.343h29.403zm-16.875-8.909c3.031-.027 2.968-4.278-.162-4.358-.027-.001-11.8.016-11.8.016-2.945.069-2.782 4.304 0 4.342h11.962z" />
</svg>
