<svg viewBox="0 0 100 100" xmlns="http://www.w3.org/2000/svg" fill-rule="evenodd" clip-rule="evenodd" stroke-linejoin="round" stroke-miterlimit="2">
	<path d="M50 0c27.596 0 50 22.404 50 50s-22.404 50-50 50S0 77.596 0 50 22.404 0 50 0zm24.871 26.256c4.64.426 8.039 6.122 5.27 10.436-.174.27-.228.331-.422.586L47.144 77.791c-.865 1.019-1.228 1.243-1.92 1.638-2.507 1.434-5.937 1.042-8.057-.986-.233-.223-.282-.288-.496-.528L20.383 58.609c-2.808-3.514-1.286-9.468 3.171-10.854 2.301-.715 4.965-.088 6.706 1.577.232.223.281.287.494.527l10.976 13.01 27.414-34.094s2.929-2.626 5.727-2.519z"/>
</svg>
