<svg viewBox="0 0 100 100" xmlns="http://www.w3.org/2000/svg" fill-rule="evenodd" clip-rule="evenodd" stroke-linejoin="round" stroke-miterlimit="2">
<path d="M50 0c27.596 0 50 22.404 50 50s-22.404 50-50 50S0 77.596 0 50 22.404 0 50 0zm9.455 78.832c1.173-.077 2.235-1.389 2.634-3.351.099-.484.155-.67.177-1.8V61.92l-7.184-.037v9.77H27.751V28.347h27.331v9.77l7.184-.037V26.319c-.061-3.169-1.158-4.852-2.611-5.138l-.2-.013H23.593c-1.173.077-2.235 1.389-2.634 3.351-.099.484-.156.67-.178 1.8v47.362c.065 3.331 1.281 5.051 2.812 5.151h35.862zm2.811-35.714h5.002v-4.199c0-.515.385-.985.997-1.218.611-.233 1.345-.188 1.899.116l20.17 11.081c.469.258.745.667.745 1.102 0 .435-.276.844-.745 1.102l-20.17 11.081c-.554.304-1.288.349-1.899.116-.612-.233-.997-.703-.997-1.218v-4.199H54.882c-1.207 0-2.186-.734-2.186-1.64V44.758c0-.906.979-1.64 2.186-1.64h.2v-.006c2.394-.062 4.789-.048 7.184-.027v.033z"/>
</svg>
