<svg viewBox="0 0 100 100" xmlns="http://www.w3.org/2000/svg" fill-rule="evenodd" clip-rule="evenodd" stroke-linejoin="round" stroke-miterlimit="2">
<path d="M50 0c27.596 0 50 22.404 50 50s-22.404 50-50 50S0 77.596 0 50 22.404 0 50 0zm8.064 60.714l-.465-4.018a.626.626 0 01.922-.623l5.908 3.21.022-.091c1.396.746 2.79 1.498 4.18 2.255l-.029.104 5.485 2.979.039-.056a686.08 686.08 0 013.551 1.996.587.587 0 01.215.231.628.628 0 01-.278.885l-.495.229-.03.039c-1.695.858-3.452 1.59-5.184 2.373l-.628.291 1.469 2.041-.008.007 6.662 9.259a.628.628 0 01-.151.88l-4.474 3.111a.63.63 0 01-.875-.161L66.04 74.15l-4.882 4.557-.003.002-.005.005a.627.627 0 01-1.05-.386l-.019-.16c-.37-2.206-.681-4.421-.955-6.641l.161-.229-.702-6.073-.156-.021c-.151-1.499-.294-2.999-.437-4.499l.072.009zm21.251-10.725a27.976 27.976 0 01-.179 1.758c-.436 3.262-1.463 6.422-2.969 9.338 1.142.628 2.285 1.253 3.43 1.875.146.083.285.174.418.272.135-.26.266-.523.393-.787 2.134-4.426 3.224-9.316 3.279-14.217.048-.206.063-.42.04-.637-.015-.146-.027-.289-.044-.428-.098-5.097-1.315-10.169-3.639-14.705-5.595-10.916-17.517-18.269-29.834-18.386H49.775c-8.571.081-16.918 3.465-23.061 9.323-7.736 7.375-11.623 18.555-10.14 29.138.79 5.639 3.145 10.962 6.584 15.469.027.085.06.171.099.256.174.387.448.648.758.823 4.927 5.964 11.798 10.334 19.388 11.839 2.078.412 4.17.609 6.248.607.185.036.376.046.568.026.113-.012.226-.023.339-.039a33.535 33.535 0 006.311-.789 4.435 4.435 0 01-.714-1.784 340.339 340.339 0 01-.482-3.769c-1.047.782-2.212 1.394-3.509 1.752v-12.22c.776.023 1.551.06 2.325.111-.164-1.495-.328-2.991-.495-4.486-.61-.038-1.22-.067-1.83-.088V49.989h13.522a47.568 47.568 0 01-.452 5.108c1.436.774 2.868 1.555 4.299 2.339.435-2.431.69-4.927.764-7.447h9.018zM47.821 64.728a65.058 65.058 0 00-10.222 1.23c1.143 2.492 2.55 4.771 4.216 6.747.235.278.478.55.729.815 1.43 1.504 3.257 2.784 5.277 3.36V64.728zm-14.319 2.189a68.285 68.285 0 00-4.58 1.4c.216.224.437.444.661.66 2.333 2.252 5.052 4.07 7.994 5.414-1.579-2.124-2.829-4.501-3.815-6.844a59.284 59.284 0 01-.26-.63zm-3.71-16.928a54.025 54.025 0 002.25 12.795 76.178 76.178 0 00-6.049 1.965c-3.012-4.339-4.844-9.498-5.278-14.76h9.077zm18.029 0v10.266a67.42 67.42 0 00-11.826 1.542c-1.179-3.701-1.853-7.714-2.006-11.808h13.832zm26.222-19.032a71.167 71.167 0 01-6.042 1.931 52.682 52.682 0 012.246 12.759h9.04a30.34 30.34 0 00-5.244-14.69zm-48.001.055c-2.377 3.275-4.092 7.028-4.892 11.061a27.968 27.968 0 00-.47 3.574h9.051c.117-4.397.781-8.726 2.011-12.769a66.615 66.615 0 01-5.7-1.866zm37.644 2.902a69.42 69.42 0 01-11.522 1.375v10.358h13.484a52.497 52.497 0 00-1.962-11.733zm-27.553.027c-1.203 3.761-1.902 7.733-2.111 11.706h13.799V35.303a67.285 67.285 0 01-11.688-1.362zm11.688-15.209c-3.09.892-5.664 3.505-7.328 5.947a25.854 25.854 0 00-1.093 1.757 37.426 37.426 0 00-1.733 3.45 61.26 61.26 0 0010.154 1.139V18.732zm4.343-.005v12.274a64.924 64.924 0 0010.118-1.21c-1.302-3.2-3.101-6.181-5.754-8.563-1.253-1.125-2.739-2.044-4.364-2.501zm-14.691 2.678a31.26 31.26 0 00-8.421 6.064c.444.173.887.342 1.319.487a59.87 59.87 0 002.84.869c1.137-2.676 2.555-5.174 4.262-7.42zm24.653-.344a28.263 28.263 0 013.245 5.147c.413.848.8 1.712 1.161 2.59a68.858 68.858 0 004.598-1.409 28.62 28.62 0 00-.855-.852 29.3 29.3 0 00-8.149-5.476z"/>
</svg>
