<svg viewBox="0 0 100 100" xmlns="http://www.w3.org/2000/svg" fill-rule="evenodd" clip-rule="evenodd" stroke-linejoin="round" stroke-miterlimit="2">
<path d="M50 0c27.596 0 50 22.404 50 50s-22.404 50-50 50S0 77.596 0 50 22.404 0 50 0zm6.818 27.697l3.362-4.438a1757.848 1757.848 0 00-33.828.097c-2.161.082-3.958 1.957-3.984 4.073 0 16.929-.212 33.859.001 50.786.082 2.162 1.963 3.957 4.073 3.984 14.591 0 29.183.187 43.773-.001 2.163-.082 3.957-1.962 3.984-4.074 0-15.483.178-30.967.044-46.449l-4.387 5.791v40.391H26.71v-50.16h30.108zm6.167 45.349c3.059-.112 2.308-4.099.158-4.336l-.158-.006H33.582c-1.887.069-2.722 2.476-1.563 3.678.33.343.397.622 1.563.664h29.403zm0-7.669c1.886-.069 2.711-2.486 1.562-3.678-.286-.297-.349-.542-1.404-.658l-.158-.006H33.582c-2.297.084-2.623 3.34-.922 4.137.263.123.404.186.922.205h29.403zm0-7.669c3.059-.113 2.308-4.1.158-4.336l-.158-.006H33.582c-3.06.112-2.221 4.261 0 4.342h29.403zm-11.561-9.189a.696.696 0 01-.982-.791l1.975-8.127 6.528 5.261-7.521 3.657zm8.401-4.749l-6.528-5.261 19.687-24.431a.965.965 0 011.357-.146l5.025 4.049a.966.966 0 01.146 1.358l-1.718 2.132-6.529-5.26-.82 1.018 6.528 5.26-1 1.241-6.528-5.26-.82 1.018 6.528 5.26L59.825 43.77z" />
</svg>
