<svg viewBox="0 0 40 40" xmlns="http://www.w3.org/2000/svg">
	<path d="M11.35 12c-.365 0-.682-.132-.95-.396-.266-.264-.4-.576-.4-.937 0-.36.134-.674.4-.938L19.85.392C20.12.13 20.435 0 20.8 0s.682.13.95.395L31.2 9.73c.266.263.4.576.4.937 0 .36-.134.673-.4.937-.268.264-.585.396-.95.396h-18.9zm18.9 16c.365 0 .682.132.95.396.266.264.4.576.4.937 0 .36-.134.674-.4.937l-9.45 9.334c-.268.264-.584.396-.95.396s-.682-.132-.95-.396L10.4 30.27c-.266-.263-.4-.576-.4-.937 0-.36.134-.673.4-.937.268-.264.584-.396.95-.396h18.9zM0 16h40v2H0v-2zm0 6h40v2H0v-2z"/>
</svg>
