<svg viewBox="0 0 24 40" xmlns="http://www.w3.org/2000/svg">
  <path d="M24 20.408c0 2.467-1.125 4.335-3.376 5.604 2.004 1.435 3.006 3.477 3.006 6.126 0 2.467-1.027 4.394-3.082 5.78C18.494 39.31 15.666 40 12.065 40c-3.89 0-6.874-.746-8.95-2.237C1.037 36.27 0 34.145 0 31.385h7.36c0 1.046.368 1.833 1.1 2.363.734.53 1.936.795 3.605.795 2.803 0 4.204-.795 4.204-2.384 0-.81-.42-1.47-1.26-1.97-.84-.5-2.55-1.1-5.15-1.8-2.6-.7-4.56-1.43-5.88-2.19-1.32-.75-2.31-1.65-2.98-2.69-.67-1.04-1-2.27-1-3.69 0-2.456 1.14-4.338 3.42-5.648C1.37 12.7.343 10.662.343 8.07c0-2.424 1.053-4.376 3.158-5.854C5.612.74 8.432 0 11.978 0c3.63 0 6.468.78 8.516 2.342 2.047 1.56 3.07 3.743 3.07 6.545h-7.34c0-1.046-.373-1.882-1.12-2.51-.748-.627-1.79-.94-3.126-.94-1.38 0-2.432.23-3.158.69-.726.46-1.09 1.094-1.09 1.902 0 .92.408 1.61 1.22 2.09.814.47 2.28.97 4.4 1.49 2.12.52 3.804 1.04 5.053 1.56 1.25.51 2.283 1.11 3.103 1.8.82.68 1.44 1.46 1.862 2.35.42.88.632 1.91.632 3.08zm-13.045-3.18c-.9-.222-1.75-.472-2.548-.75-.712.556-1.068 1.393-1.068 2.508 0 .948.32 1.67.97 2.164.64.495 2.2 1.112 4.67 1.85l2.57.71c.81-.612 1.22-1.448 1.22-2.508 0-.864-.4-1.57-1.2-2.122-.8-.55-2.34-1.167-4.62-1.85z"/>
</svg>
