<svg xmlns="http://www.w3.org/2000/svg" viewBox="0 0 40 40">
  <path d="M16.153 21.264c-.017.373.077.706.296 1.006.1.15.24.29.4.406l.12-2.878c-.51.43-.8.91-.83 1.466zm3.09 5.61l.11 4.77c.287.037.547.098.872.098.2 0 .34-.037.52-.053l.06-4.43c-.154-.03-.292-.07-.46-.11l-1.103-.28zm11.224-13.466c-1.725-1.677-5.935-4.206-6.333-5.513-.044-.122-.077-.236-.11-.345.374-.037.658-.268.658-.552 0-.31-.345-.56-.767-.56h-.04c.1-1.206 1.234-1.864 2.362-5.7-4.482-1.38-4.397-.31-7.81 1.396-2.53.532-2.35-2.955-5.546-1.348 1.63 3.492 2.96 4.433 3.26 5.664-.37.04-.65.268-.65.552 0 .28.29.51.66.552-.01.057-.016.105-.032.166-.343 1.372-4.71 3.89-6.57 5.688-4.065 3.954-12.245 25.72 2.6 26.242 6.984.244 7.87.244 7.87.244s.89 0 7.872-.244c14.844-.523 6.67-22.292 2.595-26.242zM26.62 28.83c-.09.837-.407 1.61-.95 2.335-.55.707-1.288 1.263-2.234 1.677-.215.098-.46.146-.69.22l-.11 1.546c-.024.422-.467.788-.994.8-.528.012-.95-.32-.942-.743l.016-1.242c-.162.004-.31.036-.475.036-.3-.01-.56-.03-.84-.05l.03 1.25c.01.42-.41.75-.94.73-.52-.01-.97-.38-.99-.81l-.11-1.55c-.62-.21-1.18-.47-1.633-.81-1.052-.8-1.81-2.136-2.24-3.69-.07-.69.39-1.215 1.06-1.16.68.055 1.3.696 1.36 1.41.223.935.637 1.5 1.266 2.015l-.3-4.715c-.423-.162-.79-.33-1.05-.466-.76-.42-1.31-.984-1.67-1.67-.352-.686-.51-1.425-.465-2.22.036-.72.227-1.39.57-1.998.34-.61.8-1.12 1.36-1.546.38-.286.9-.542 1.53-.773l.145-1.715c.04-.46.513-.857 1.07-.88.56-.025 1.002.33.994.78l-.035 1.39c.13-.003.26-.024.4-.024.37 0 .68.04 1.02.07l-.025-1.44c-.01-.456.442-.81 1.002-.79.563.025 1.04.415 1.075.87l.135 1.81c.055.02.116.034.17.05.96.394 1.67.9 2.142 1.526.473.627.834 1.64 1.054 2.7.032.737-.488 1.33-1.182 1.31-.718-.013-1.344-.67-1.372-1.446-.1-.57-.335-.96-.63-1.32l.09 4.4c.59.2 1.075.37 1.41.52.724.33 1.26.8 1.6 1.41.34.61.464 1.35.375 2.2zm-3.286-.8c-.048-.035-.142-.068-.22-.1l-.214 3.146c.033-.02.08-.028.114-.057.625-.48.962-1.03 1.02-1.66.052-.58-.18-1.02-.7-1.33zm-3.418-9.02c-.248 0-.414.04-.637.06l-.07 4.483c.3.09.64.183 1.03.285.21.06.38.105.58.166l-.03-4.904c-.3-.037-.55-.098-.88-.09z"/>
</svg>
