<svg xmlns="http://www.w3.org/2000/svg" viewBox="0 0 36 36">
	<path d="M4.009.062C2.003.065-.002 2.012 0 3.846l.031 28.187c.002 1.95 1.972 3.998 3.947 3.998h27.989c2.036 0 4.033-2.048 4.033-4.092V9.025L27.002.031zm6.023 3.996l15.877-.044c1.094-.003 2.094.995 2.094 1.994V14c0 .999-1.031 1.991-1.948 1.99l-16.067-.013c-.985 0-1.98-1.01-1.98-2.053V6.036c0-1.027.995-1.975 2.024-1.978zM6.02 19.99l23.906.032c1.078.001 2.034.974 2.046 2.03l.094 7.907c.012 1.028-1.062 2.029-2.022 2.03l-24.117.031c-.923.001-1.737-1.033-1.741-2.03l-.031-8.001c-.004-.993.85-2 1.865-1.999z"/>
	<path d="M19.003 9.982v3c-.079.604.562 1.093 1.094 1.093 3 0 2.96-.058 2.96-.058.5.006 1.011-.505.946-1.035v-3l-.02-2.94c-.003-.421-.443-1.033-1.052-1.033h-2.91c-.646 0-.968.495-.975.995"/>
</svg>
