<svg xmlns="http://www.w3.org/2000/svg" viewBox="0 0 41 41">
	<path d="M19 14.956v3.007c0 1.004 1.247 1.004 1.247 1.004h2.491c.732 0 1.23-.45 1.232-.997l.012-3.014v-3.01c0-.473-.56-.98-1.238-.98h-2.5c-.723 0-1.25.43-1.262.987"/>
	<path d="M32.006 0v4.994h-4.997v3.995h4.997v4.994h3.997V8.989H41V4.994h-4.997V0z" clip-rule="evenodd" fill-rule="evenodd"/>
	<path d="M25.047 5.044l-6.953.012H3.97C2 5.056-.003 7.039 0 9.036L.044 36.89c.002 1.794 1.767 4.064 3.577 4.066L32.01 41c1.81.003 3.968-2.243 3.968-4.034l-.044-13.33s.047-4.394.044-6.523c0-.331-.019-.992-.019-.992a9.015 9.015 0 01-1.862.211 9.106 9.106 0 01-6.183-2.454c-.009.106.066.112.069.667.086 4.595 0 4.465 0 4.465 0 .986-1.051 2.03-1.999 2.03H9.963c-.969 0-2.04-1.033-2.03-2.063l.088-8.027c.01-.918.973-1.916 1.973-1.916h14.99c-.137-.644-.105-1.48-.109-2.139a9.525 9.525 0 01.175-1.851zM5.854 25.004h24.263c.93 0 1.862.741 1.862 1.486v8.964c0 .748-.936 1.495-1.865 1.495H5.854c-.935 0-1.865-.747-1.865-1.495v-8.96c0-.746.936-1.49 1.862-1.49z"/>
</svg>
