<svg viewBox="0 0 30 30" xmlns="http://www.w3.org/2000/svg" fill-rule="evenodd" clip-rule="evenodd" stroke-linejoin="round" stroke-miterlimit="2"><path d="M15.1 0H16.7l.1.1H17.3l.2.1h.4l.1.1h.4v.1H18.8l.1.1H19.1v.1h.4v.1H19.8l.1.1h.2V1h.2l.1.1h.1l.2.1h.1l.2.2h.2l.1.1h.2l.2.2h.1l.2.1.1.1.2.1h.2l.1.2h.2l.1.2h.2l.1.2h.2l.1.2h.2l.1.2h.2l.1.2.2.1.1.1.1.1.2.1.1.2h.1l.2.2.1.1.1.1.2.2.1.1.1.1.2.2.2.2.1.2h.1l.2.2v.2l.2.1.1.1.1.2.1.1.1.2.1.1.1.2.1.1.1.2.1.1.1.2.1.1.1.2.1.1.1.2v.2l.2.1v.2l.1.1.1.2.1.2v.1l.1.2.1.2v.1l.2.2V9.9l.1.1v.2h.1v.2l.1.2v.2l.1.1V11.1h.1v.4l.1.1v.4h.1v.4l.1.1v.7h.1V14.7l.1.1V16.6l-.1.1V17.3l-.1.2v.4l-.1.1v.4h-.1V18.8l-.1.1V19.1h-.1v.4h-.1V19.8l-.1.1v.2H29v.2l-.1.1v.1l-.1.2v.1l-.2.2v.2l-.1.1v.2l-.2.2v.1l-.1.2-.1.1-.1.2v.2l-.2.1v.2l-.2.1v.2l-.2.1v.2l-.2.1v.2l-.2.1v.2l-.2.1-.1.2-.1.1-.1.1-.1.2-.2.1v.1l-.2.2-.1.1-.1.1-.2.2-.1.1-.1.1-.2.2-.2.2-.2.1v.1l-.2.2h-.2l-.1.2-.1.1-.2.1-.1.1-.2.1-.1.1-.2.1-.1.1-.2.1-.1.1-.2.1-.1.1-.2.1-.1.1-.2.1h-.2l-.1.2h-.2l-.1.1-.2.1-.2.1h-.1l-.2.1-.2.1h-.1l-.2.2H20.1l-.1.1h-.2v.1h-.2l-.2.1h-.2l-.1.1H18.9v.1h-.4l-.1.1H18v.1h-.4l-.1.1h-.7v.1H15.3l-.1.1H13.4l-.1-.1H12.7l-.2-.1H12l-.1-.1H11.7l-.2-.1h-.2l-.1-.1H10.9v-.1h-.4v-.1H10.2l-.1-.1h-.2V29h-.2l-.1-.1h-.1l-.2-.1h-.1l-.2-.2h-.2l-.1-.1h-.2l-.2-.2h-.1l-.2-.1-.1-.1-.2-.1h-.2l-.1-.2h-.2l-.1-.2h-.2l-.1-.2h-.2l-.1-.2h-.2l-.1-.2H6l-.1-.2-.2-.1-.1-.1-.1-.1-.2-.1-.1-.2H5l-.2-.2-.1-.1-.1-.1-.2-.2-.1-.1-.1-.1-.2-.2-.2-.2-.1-.2h-.1l-.2-.2v-.2l-.2-.1-.1-.1-.1-.2L3 24l-.1-.2-.1-.1-.1-.2-.1-.1-.1-.2-.1-.1-.1-.2-.1-.1-.1-.2-.1-.1-.1-.2v-.2l-.2-.1v-.2l-.1-.1-.1-.2-.1-.2v-.1l-.1-.2-.1-.2v-.1l-.2-.2V20.1L.8 20v-.2H.7v-.2l-.1-.2v-.2l-.1-.1V18.9H.4v-.4l-.1-.1V18H.2v-.4l-.1-.1v-.7H0V15.3l-.1-.1V13.4l.1-.1V12.7l.1-.2V12l.1-.1V11.7l.1-.2v-.2l.1-.1V10.9h.1v-.4h.1V10.2l.1-.1v-.2H1v-.2l.1-.1v-.1l.1-.2v-.1l.2-.2v-.2l.1-.1v-.2l.2-.2v-.1l.1-.2.1-.1.1-.2v-.2l.2-.1v-.2l.2-.1v-.2l.2-.1v-.2l.2-.1v-.2l.2-.1V6l.2-.1.1-.2.1-.1.1-.1.1-.2.2-.1V5l.2-.2.1-.1.1-.1.2-.2.1-.1.1-.1.2-.2.2-.2.2-.1v-.1l.2-.2h.2l.1-.2.1-.1.2-.1L6 3l.2-.1.1-.1.2-.1.1-.1.2-.1.1-.1.2-.1.1-.1.2-.1.1-.1.2-.1h.2l.1-.2h.2l.1-.1.2-.1.2-.1h.1l.2-.1.2-.1h.1l.2-.2H9.9l.1-.1h.2V.7h.2l.2-.1h.2l.1-.1H11.1V.4h.4l.1-.1h.2l.2-.1h.4l.1-.1h.7V0H14.6l.1-.1h.5zm-.2 3h-1.4v.1H12.9l-.1.1h-.4l-.1.1H12v.1h-.4v.1H11.3v.1H11l-.2.1h-.2v.1h-.2l-.2.1-.1.1h-.1l-.2.1h-.1l-.1.1-.2.1-.2.1-.1.1H9v.2h-.2l-.1.1h-.2V5h-.2l-.1.1-.1.1-.2.1-.2.2h-.1l-.1.1-.1.1-.1.1L7 6V6l-.2.1v.1l-.2.1v.1l-.2.1v.1l-.2.1v.1L6 7V7l-.2.1v.2h-.2v.2l-.1.1-.1.1-.1.1-.1.1v.2H5v.2l-.1.1-.1.1v.2h-.2V9l-.1.1v.2h-.2V9.6l-.2.2v.2l-.1.2-.1.1v.1l-.1.2v.1h-.1v.2l-.1.1V11.2h-.1V11.6h-.1v.4h-.1V12.2l-.1.2V12.7l-.1.1v.5l-.1.2v1.1H3V16.6h.1V17.1l.1.1v.4l.1.1V18h.1v.4h.1V18.7h.1v.2l.1.2v.2h.1v.2l.1.2.1.1v.1l.1.2v.1l.1.1.1.2.1.2.1.1v.2h.2v.2l.1.1v.2H5v.2l.1.1.1.1.1.2.2.2v.1l.1.1.1.1.1.1.1.2H6l.1.2h.1l.1.2h.1l.1.2h.1l.1.2h.1l.1.2H7l.1.2h.2v.2h.2l.1.1.1.1.1.1.1.1h.2v.2h.2l.1.1.1.1h.2v.2H9l.1.1h.2v.2H9.6l.2.2h.2l.2.1.1.1h.1l.2.1h.1v.1h.2l.1.1H11.2v.1H11.6v.1h.4v.1H12.2l.2.1H12.7l.1.1h.5l.2.1h1.1v.1H16.6v-.1H17.1l.1-.1h.4l.1-.1H18v-.1h.4v-.1H18.7v-.1h.2l.2-.1h.2v-.1h.2l.2-.1.1-.1h.1l.2-.1h.1l.1-.1.2-.1.2-.1.1-.1h.2v-.2h.2l.1-.1h.2V25h.2l.1-.1.1-.1.2-.1.2-.2h.1l.1-.1.1-.1.1-.1.2-.1V24l.2-.1v-.1l.2-.1v-.1l.2-.1v-.1l.2-.1v-.1l.2-.1V23l.2-.1v-.2h.2v-.2l.1-.1.1-.1.1-.1.1-.1v-.2h.2v-.2l.1-.1.1-.1v-.2h.2V21l.1-.1v-.2h.2V20.4l.2-.2v-.2l.1-.2.1-.1v-.1l.1-.2v-.1h.1v-.2l.1-.1V18.8h.1V18.4h.1V18h.1V17.8l.1-.2V17.3l.1-.1v-.5l.1-.2v-1.1h.1V13.4h-.1V12.9l-.1-.1v-.4l-.1-.1V12h-.1v-.4h-.1V11.3h-.1V11l-.1-.2v-.2h-.1v-.2l-.1-.2-.1-.1v-.1l-.1-.2v-.1l-.1-.1-.1-.2-.1-.2-.1-.1V9h-.2v-.2l-.1-.1v-.2H25v-.2l-.1-.1-.1-.1-.1-.2-.2-.2v-.1l-.1-.1-.1-.1-.1-.1L24 7H24l-.1-.2h-.1l-.1-.2h-.1l-.1-.2h-.1l-.1-.2h-.1L23 6H23l-.1-.2h-.2v-.2h-.2l-.1-.1-.1-.1-.1-.1-.1-.1h-.2V5h-.2l-.1-.1-.1-.1h-.2v-.2H21l-.1-.1h-.2v-.2H20.4l-.2-.2h-.2l-.2-.1-.1-.1h-.1l-.2-.1h-.1v-.1h-.2l-.1-.1H18.8v-.1H18.4v-.1H18v-.1H17.8l-.2-.1H17.3l-.1-.1h-.5l-.2-.1h-1.1V3H15z"/><path d="M13.5 6h3v9.8h-3z"/><path d="M21.8 16.5h-7.6v-3h7.6v3z"/><circle cx="15" cy="27" r="1.5"/><circle cx="3" cy="15" r="1.5"/><circle cx="6.8" cy="23.3" r="1.5"/><circle cx="24" cy="23.3" r="1.5"/><circle cx="24" cy="6.8" r="1.5"/><circle cx="6.8" cy="6.8" r="1.5"/><circle cx="27" cy="15" r="1.5"/></svg>