<svg viewBox="0 0 40 40" xmlns="http://www.w3.org/2000/svg">
  <path d="M34.278 22c0-.6.2-1.2.2-2s0-1.4-.2-2l4.2-3.4c.4-.4.4-.8.2-1.2l-4-7c-.2-.2-.6-.4-1.2-.2l-5 2c-1-.8-2.2-1.4-3.4-2l-.8-5.2c.2-.6-.4-1-.8-1h-8c-.4 0-1 .4-1 .8l-.8 5.4c-1.2.4-2.2 1.2-3.4 2l-4.8-2c-.6-.2-1 0-1.4.4l-4 7c-.2.2 0 .8.4 1.2l4.2 3.2c0 .6-.2 1.2-.2 2s0 1.4.2 2l-4.2 3.4c-.4.4-.4.8-.2 1.2l4 7c.2.2.6.4 1.2.2l5-2c1 .8 2.2 1.4 3.4 2l.8 5.2c0 .4.4.8 1 .8h8c.4 0 1-.4 1-.8l.8-5.2c1.2-.6 2.4-1.2 3.4-2l5 2c.4.2 1 0 1.2-.4l4-7c.2-.4.2-1-.2-1.2l-4.6-3.2zm-14.8 5c-3.8 0-7-3.2-7-7s3.2-7 7-7 7 3.2 7 7-3.2 7-7 7z" fill-rule="evenodd"/>
</svg>
