<svg viewBox="0 0 40 40" xmlns="http://www.w3.org/2000/svg" fill-rule="evenodd" clip-rule="evenodd" stroke-linejoin="round" stroke-miterlimit="2"><path d="M11 0c3.863 0 7 3.137 7 7s-3.137 7-7 7-7-3.137-7-7 3.137-7 7-7zm0 3.5c1.932 0 3.5 1.568 3.5 3.5s-1.568 3.5-3.5 3.5S7.5 8.932 7.5 7 9.068 3.5 11 3.5zM31 11c4.967 0 9 4.033 9 9s-4.033 9-9 9-9-4.033-9-9 4.033-9 9-9zm0 3.375c3.105 0 5.625 2.52 5.625 5.625s-2.52 5.625-5.625 5.625-5.625-2.52-5.625-5.625 2.52-5.625 5.625-5.625zM7 26c3.863 0 7 3.137 7 7s-3.137 7-7 7-7-3.137-7-7 3.137-7 7-7zm0 3.5c1.932 0 3.5 1.568 3.5 3.5S8.932 36.5 7 36.5 3.5 34.932 3.5 33s1.568-3.5 3.5-3.5z"/><path d="M15.693 8.031l-2.259 3.319 10.195 6.938 2.259-3.319-10.195-6.938zM10.914 28.227l1.886 3.429 11.8-6.491-1.886-3.429-11.8 6.491z"/></svg>