<svg viewBox="0 0 40 31" xmlns="http://www.w3.org/2000/svg">
  <path d="M27.58 28.602c-.08.076-.176.137-.282.176-2.345.878-4.8 1.322-7.298 1.322h-.16c-2.5 0-4.954-.444-7.3-1.322-.105-.04-.2-.1-.28-.176C6.577 26.312 2.03 21.547.04 15.355c-.032-.1-.045-.202-.04-.305-.005-.103.008-.206.04-.305C2.03 8.553 6.577 3.787 12.26 1.498c.08-.076.175-.137.28-.176C14.887.444 17.34 0 19.84 0H20c2.498 0 4.953.444 7.298 1.322.106.04.202.1.282.176 5.683 2.29 10.23 7.055 12.22 13.247.03.1.044.202.038.305.006.103-.007.206-.038.305-1.99 6.192-6.537 10.958-12.22 13.247zm-7.66-1.836c4.53-.03 8.455-2.656 10.36-6.46.008-.1.034-.196.078-.287.754-1.58 1.14-3.25 1.148-4.97-.007-1.72-.394-3.395-1.148-4.97-.044-.09-.07-.19-.078-.288-1.905-3.805-5.83-6.43-10.36-6.46-4.53.03-8.456 2.655-10.36 6.46-.01.098-.035.195-.08.286-.753 1.577-1.14 3.25-1.147 4.97.008 1.72.394 3.39 1.148 4.97.048.09.07.186.08.284 1.907 3.805 5.83 6.43 10.36 6.46zM19.84 22c-3.866 0-7-3.134-7-7s3.134-7 7-7 7 3.134 7 7-3.134 7-7 7z"/>
</svg>
