<svg xmlns="http://www.w3.org/2000/svg" width="40" height="40" viewBox="0 0 40 40"><path d="M38.2255 18.2491l-.6406-.0156-14.0938 3.0937v3.3125l8.0313-1.5312.0156 15.7343 6.6875.0157z"/><path d="M9.1792 1.3784c-2.4206.0118-4.9096 1.012-6.4258 2.9434-1.089 1.3971-1.6315 3.1967-1.463 4.9629.0606 2.019 1.0342 4.0351 2.7286 5.1777 1.6034 1.0985 3.6522 1.3892 5.5469 1.1055 1.1694-.2027 2.265-.7289 3.1953-1.459-.1224 1.3265-.6936 2.655-1.7578 3.4941-1.6197 1.2756-3.7585 1.546-5.7578 1.545-.4809-.1466-.3848.269-.377.5995.0022.9405.0037 1.8818.0059 2.8223 2.5988.0336 5.2895-.3027 7.5918-1.584 1.0513-.6116 2.0726-1.3162 2.8164-2.2949.8867-1.0495 1.5271-2.3007 1.877-3.6289.3365-1.0306.4486-2.1223.4882-3.2012.0192-1.4729.101-2.964-.2422-4.4101-.5066-2.175-1.8944-4.221-3.957-5.1758-1.309-.6847-2.8037-.9206-4.2695-.8965zm-.3086 3.836a3.5725 3.51 0 01.3574.0175 3.5725 3.51 0 01.3515.0528 3.5725 3.51 0 01.3477.0859 3.5725 3.51 0 01.334.121 3.5725 3.51 0 01.3223.1524 3.5725 3.51 0 01.3046.1836 3.5725 3.51 0 01.2832.211 3.5725 3.51 0 01.2618.2402 3.5725 3.51 0 01.2363.2637 3.5725 3.51 0 01.207.2851 3.5725 3.51 0 01.1778.3047 3.5725 3.51 0 01.1464.3203 3.5725 3.51 0 01.1114.332 3.5725 3.51 0 01.08.3438 3.5725 3.51 0 01.043.3477 3.5725 3.51 0 01.0078.248 3.5725 3.51 0 01-.0176.3496 3.5725 3.51 0 01-.0527.3477 3.5725 3.51 0 01-.0898.3398 3.5725 3.51 0 01-.1211.3301 3.5725 3.51 0 01-.1563.3164 3.5725 3.51 0 01-.1855.2988 3.5725 3.51 0 01-.2168.2793 3.5725 3.51 0 01-.2442.2559 3.5725 3.51 0 01-.2676.2324 3.5725 3.51 0 01-.291.2031 3.5725 3.51 0 01-.3086.1758 3.5725 3.51 0 01-.3261.1426 3.5725 3.51 0 01-.3399.1113 3.5725 3.51 0 01-.3476.0762 3.5725 3.51 0 01-.3555.043 3.5725 3.51 0 01-.252.0078 3.5725 3.51 0 01-.3574-.0176 3.5725 3.51 0 01-.3515-.0527 3.5725 3.51 0 01-.3477-.086 3.5725 3.51 0 01-.334-.121 3.5725 3.51 0 01-.3222-.1524 3.5725 3.51 0 01-.3047-.1836 3.5725 3.51 0 01-.2832-.211 3.5725 3.51 0 01-.2617-.2402 3.5725 3.51 0 01-.2364-.2636 3.5725 3.51 0 01-.207-.2852 3.5725 3.51 0 01-.1777-.3047 3.5725 3.51 0 01-.1465-.3203 3.5725 3.51 0 01-.1113-.332 3.5725 3.51 0 01-.0801-.3438 3.5725 3.51 0 01-.043-.3476 3.5725 3.51 0 01-.0078-.248 3.5725 3.51 0 01.0176-.3497 3.5725 3.51 0 01.0527-.3477 3.5725 3.51 0 01.0898-.3398 3.5725 3.51 0 01.1211-.33 3.5725 3.51 0 01.1563-.3165 3.5725 3.51 0 01.1855-.2988 3.5725 3.51 0 01.2168-.2793 3.5725 3.51 0 01.2442-.2559 3.5725 3.51 0 01.2676-.2324 3.5725 3.51 0 01.291-.2031 3.5725 3.51 0 01.3086-.1758 3.5725 3.51 0 01.3261-.1426 3.5725 3.51 0 01.3399-.1113 3.5725 3.51 0 01.3476-.0762 3.5725 3.51 0 01.3555-.043 3.5725 3.51 0 01.252-.0078z"/></svg>
