<svg xmlns="http://www.w3.org/2000/svg" height="40" width="40" viewBox="0 0 40 40"><path d="M.5895 22.6188v-5.0322c0-1.391 1.163-2.5065 2.5884-2.5065h21.5902c1.4326 0 2.5886 1.1293 2.5886 2.5133v5.0323c0 1.391-1.163 2.512-2.5886 2.512H3.1779c-1.4324.0055-2.5884-1.1224-2.5884-2.5133zm0-14.2539V3.3312c0-1.391 1.163-2.5167 2.5884-2.5133l14.166.033c1.4329.0034 2.4741 1.4364 2.4382 2.8202l-.1275 4.9042c-.0363 1.3907-1.4025 2.23-2.8292 2.237l-13.6475.066C1.7455 10.8838.5895 9.7545.5895 8.3636zm0 28.5093v-5.0325c0-1.3908 1.163-2.5147 2.5884-2.5147h33.683c1.4324 0 2.5886 1.1293 2.5886 2.5147v5.0325c-.0014 1.3909-1.1546 2.5119-2.583 2.5119H3.181c-1.4325.0069-2.59-1.121-2.59-2.512z"/></svg>
