<svg xmlns="http://www.w3.org/2000/svg" height="40" width="40" viewBox="0 0 40 40"><path d="M.5895 17.5852v5.0323c0 1.391 1.163 2.5064 2.5884 2.5064h21.5902c1.4326 0 2.5886-1.1292 2.5886-2.5133v-5.0322c0-1.3911-1.163-2.5121-2.5886-2.5121H3.1779C1.7455 15.0608.5895 16.1888.5895 17.5797zm0 14.254v5.0336c0 1.391 1.163 2.5167 2.5884 2.5133l14.166-.033c1.4329-.0033 2.4741-1.4363 2.4382-2.8202l-.1275-4.9041c-.0363-1.3907-1.4025-2.2301-2.8292-2.237l-13.6475-.066C1.7455 29.3201.5895 30.4495.5895 31.8404zm0-28.5093v5.0324c0 1.3909 1.163 2.5147 2.5884 2.5147h33.683c1.4324 0 2.5886-1.1292 2.5886-2.5147V3.33c-.0014-1.391-1.1546-2.512-2.583-2.512H3.181C1.7484.8112.591 1.939.591 3.33z"/></svg>
