<svg xmlns="http://www.w3.org/2000/svg" width="40" height="40" viewBox="0 0 40 40">
<path d="M20.005.002c-1.593.124-1.743 2.021-2.434 3.146l-4.294 9.11c-4.099.65-8.213 1.2-12.302 1.909-1.777.823-.718 2.74.424 3.586l7.726 7.885c-.677 4.281-1.45 8.547-2.07 12.837.148 1.988 2.299 1.572 3.404.68 3.178-1.75 6.357-3.5 9.535-5.248 3.681 1.996 7.315 4.08 11.024 6.025 1.928.41 2.107-1.81 1.675-3.135l-1.828-11.159c2.95-3.047 5.972-6.026 8.88-9.114.993-1.702-.946-2.675-2.382-2.645l-10.65-1.62c-1.857-3.881-3.626-7.804-5.535-11.66a1.493 1.493 0 00-1.173-.597z"/></svg>
