<svg viewBox="0 0 40 28" xmlns="http://www.w3.org/2000/svg">
  <path d="M38.354 8.87c.007.114 0 .23-.03.345l-2.462 10.21c-.124.514-.57.876-1.08.88l-14.776.076H5.224c-.514 0-.962-.36-1.086-.88L1.675 9.256c-.028-.12-.036-.238-.03-.354C.695 8.587 0 7.663 0 6.575 0 5.23 1.054 4.138 2.35 4.138c1.297 0 2.35 1.093 2.35 2.437 0 .756-.333 1.433-.857 1.88l3.084 3.22c.78.814 1.86 1.28 2.966 1.28 1.308 0 2.556-.643 3.34-1.722l5.068-6.96c-.422-.44-.686-1.05-.686-1.72 0-1.344 1.054-2.437 2.35-2.437 1.297 0 2.35 1.093 2.35 2.436 0 .652-.248 1.243-.652 1.68l.006.007 5.03 6.975c.785 1.09 2.037 1.74 3.35 1.74 1.115 0 2.165-.452 2.954-1.27l3.1-3.216c-.535-.447-.878-1.13-.878-1.896 0-1.344 1.054-2.437 2.35-2.437 1.297 0 2.35 1.093 2.35 2.437 0 1.06-.656 1.96-1.57 2.295zm-2.732 15.147c0-.64-.5-1.16-1.12-1.16H5.548c-.618 0-1.12.52-1.12 1.16V26.8c0 .642.502 1.16 1.12 1.16h28.956c.618 0 1.12-.518 1.12-1.16v-2.783z"/>
</svg>
