<svg viewBox="0 0 40 40" xmlns="http://www.w3.org/2000/svg">
  <path d="M39.023 21.254L20.145 2.404c-.67-.67-1.566-1.238-2.693-1.704-1.126-.467-2.156-.7-3.09-.7H3.38c-.916 0-1.708.335-2.377 1.003C.333 1.673 0 2.463 0 3.38v10.983c0 .933.233 1.962.7 3.09.466 1.126 1.034 2.014 1.703 2.666l18.877 18.9c.652.65 1.443.976 2.377.976.914 0 1.716-.327 2.402-.978l12.96-12.99c.65-.653.977-1.444.977-2.377 0-.914-.327-1.715-.978-2.402zM10.838 10.838c-.66.66-1.456.99-2.39.99-.932 0-1.73-.33-2.39-.99-.66-.66-.99-1.456-.99-2.39 0-.932.33-1.73.99-2.388.66-.66 1.458-.99 2.39-.99.934 0 1.73.33 2.39.99.66.66.99 1.456.99 2.39 0 .932-.33 1.728-.99 2.388z"/>
</svg>
