<svg xmlns="http://www.w3.org/2000/svg" fill-rule="evenodd" stroke-linejoin="round" stroke-miterlimit="1.4" clip-rule="evenodd" viewBox="0 0 40 40"><path d="M0 10.4L10.4 0l2.1 2.1L2.1 12.5zM27.5 38L38 27.4l2.1 2.1L29.6 40z"/><path d="M2.1 0l10.4 10.4-2 2.1L0 2.1zM29.6 27.5L40 38 38 40 27.4 29.6z"/><path d="M31.2 22V20l-.1-.4V19l-.1-.5v-.9l-.1-.5v-.5l-.1-.4v-.5l-.1-.5v-.5l-.2-.5v-1l-.1-.2v-.5l-.1-.2v-.5l-.1-.2v-.3L30 11v-.5l-.1-.2v-.2l-.1-.2v-.5l-.1-.2V9l-.1-.2v-.2l-.1-.2v-.2l-.1-.2V8l-.1-.2v-.2l-.1-.2v-.1l-.1-.2v-.2l-.1-.1v-.2l-.1-.1v-.1l-.1-.2h-.1v-.2l-.1-.1v-.1h-.1v-.2h-.1v-.2h-.2v.1h-.1v.1H28v.1H28v.1l-.1.1-.1.2-.2.2-.1.1-.1.2-.1.1-.2.2V7l-.2.2-.1.2-.1.2-.2.2V8l-.2.2-.2.3v.2l-.2.2-.2.3-.1.2-.1.3-.2.3-.1.2-.2.3-.1.3-.1.3-.2.3-.1.3-.2.3-.1.3-.2.3-.1.3-.3.6-.3.6-.3.7-.2.3-.1.3-.3.7-.3.7-.3.7-.2.3-.1.4-.3.6-.6 1.4-.6 1.5-.3.7v.2l-.2.5-.3.7-.3.6-.2.6v.1l-.3.7-.3.7-.2.6-.3.7-.1.3-.2.3v.3l-.2.3-.1.4-.2.3v.3h-.1l-.1.2-.1.3-.1.3-.2.3v.3l-.2.3-.1.2-.1.3-.2.2v.3l-.2.2-.1.3-.1.2-.1.2-.1.3-.2.2v.2l-.2.2v.2l-.2.2-.1.2v.1h-.1v.2H14v.1l-.1.1v.1h-.1l-.1.1v.1l-.1.1-.1.1v.1h-.1v.1h-.1v.1h-.1v.1l-.1.1H13v.1H13v.1h-.1v.1h-.1l-.1.1h-.1v.1h-.2v.1H12v.1H10.5v-.1h-.2V37h-.2V37H10v-.1H10l-.1-.1-.1-.1h-.1v-.1h-.1v-.1h-.1v-.1l-.1-.1-.1-.1V36h-.1V36l-.1-.1-.1-.1v-.1h-.1v-.1l-.1-.1-.1-.2v-.1h-.1V35l-.2-.1v-.2l-.1-.2-.1-.1-.1-.2V34l-.2-.2v-.2l-.1-.1-.1-.2V33l-.2-.2v-.2l-.1-.2v-.2l-.2-.2v-.3l-.1-.2v-.2l-.2-.2V31l-.1-.2v-.3l-.1-.2-.1-.2v-.2l-.1-.3-.1-.2v-.2l-.1-.3-.1-.2v-.2l-.1-.3L6 28v-.3l-.2-.4-.1-.5-.1-.5-.2-.5v-.4l-.2-.5-.1-.5-.1-.5-.1-.4-.1-.5-.1-.4-.1-.5-.1-.4-.1-.4-.1-.5v-.4l-.2-.7-.2-.7-.1-.7-.1-.5-.1-.5-.1-.4V16.6h-.1v-.1l.4-2 1.7-1.1 2 .4 1.1 1.7v.7l.1.4v1.1l.1.6v1.5l.1.4v.8l.1.5v.9l.1.4v.9l.1.5v.5l.1.4v.5l.1.5v.5l.2.4v1l.1.2v.4l.1.3v.4l.1.2v.2l.1.3v.4l.1.2v.2l.1.2v.2l.1.2v.4l.1.1v.2l.1.2v.2l.1.1v.2l.1.2v.1l.1.2v.1l.1.1v.2l.1.1v.1l.1.1v.2h.1v.1l.1.1v.1l.1.1v.1h.1v.1h.2v-.1h.1v-.1h.1v-.1l.1-.1.1-.1.1-.2h.1V34l.2-.1v-.2l.2-.1v-.2l.2-.2.1-.2.1-.2.2-.2v-.2l.2-.2.1-.2.2-.2.1-.2.1-.3.2-.2.1-.3.1-.2.2-.3.1-.3.2-.2v-.3l.2-.2.2-.4.1-.2.2-.3.1-.3.1-.3.2-.3.1-.4.3-.6.3-.6.3-.7.3-.6v-.1l.3-.6.3-.7.3-.7.2-.5.1-.1.3-.7.6-1.4v-.1l.6-1.4.2-.7.2-.4.1-.3.3-.7.3-.7.2-.6.2-.4.1-.3.3-.7.2-.7.3-.6.1-.3.1-.3.1-.4.2-.3.1-.3.1-.3.1-.3.2-.3v-.3l.2-.2.1-.3.1-.2v-.1l.2-.3v-.2l.2-.3.1-.3.1-.2.1-.3.2-.2v-.2l.2-.3v-.2h.1l.1-.2.1-.2.1-.2.1-.2.1-.2.2-.2v-.2h.1v-.2h.1v-.1l.1-.1.1-.1.1-.2.1-.1v-.1h.1l.1-.1v-.1h.1v-.1h.1v-.1h.1v-.1h.1l.1-.1.1-.1.1-.1h.1v-.1h.2v-.1h.2l.1-.1H28.2l.1-.1H29.2l.1.1h.2l.1.1h.1V3h.2V3h.1v.1h.1l.1.1h.1v.1h.1v.1l.1.1h.1v.1h.1v.1l.1.1V4h.1V4l.1.1.1.1v.1h.1v.1l.1.1v.1l.1.1.1.2V5h.1v.2l.2.2v.1l.1.2.1.2.1.2.1.2v.2l.2.2v.2l.1.2.1.2v.2l.2.2v.2l.1.2.1.2v.3l.1.2.1.2.1.2v.3l.1.2.1.2v.3h.1v.2l.1.3.1.2v.2l.2.3v.5l.2.2v.3l.1.2v.3l.2.5.1.5.1.5.2.5v.4l.2.5.1.5.1.5.1.5.1.4.1.5.1.4.1.5v.3h.1v.5l.2.4v.3l.1.4v.3h.1v.4l.2.5v.5l.1.5.1.3v.2l-.5 2-1.8 1-2-.6-1-1.8V22zM11.4 35v-.1zm0 0l.1-.1zm.1-.1zm0 0zm0 0zm0 0zm0 0zm0 0zm0 0zm0 0zm0 0zm0 0zm0 0zM28.5 5.2zm0 0zm.1-.1zm0 0zm0 0zm0 0zm0 0zm0 0zm0 0zm0 0l.1-.1z"/></svg>