<svg xmlns="http://www.w3.org/2000/svg" viewBox="0 0 40 40">
  <path d="M28.644 15.593l-18.43 18.43c-1.232 1.232-3.178 1.286-4.345.12-1.17-1.168-1.117-3.113.12-4.347L24.414 11.37l-11.506.32c-1.697.045-3.035-1.293-2.988-2.99.047-1.698 1.46-3.11 3.158-3.158l18.927-.524c.102-.003.203 0 .304.007.046.002.088.01.13.016.054.006.106.01.166.02l.148.037c.043.014.092.02.134.036.043.015.092.036.142.043.04.014.084.028.133.05.043.014.085.042.127.056.04.014.09.035.133.064l.114.07.135.077c.042.028.082.06.125.09.035.03.072.053.107.08.075.06.147.127.216.196.075.073.138.145.2.223.027.032.05.07.08.104.03.044.062.086.09.13.03.043.055.088.08.135.024.04.048.076.07.12.026.045.046.09.065.133l.06.135c.02.046.036.09.047.136l.05.15.03.137c.01.05.027.1.033.153.01.05.012.106.02.162.004.046.013.087.02.137.005.095.007.19.007.29 0 0-.177 6.315-.524 18.937-.028.85-.39 1.625-.962 2.197-.57.57-1.35.934-2.197.957-1.7.045-3.04-1.29-2.99-2.99l.32-11.505z" fill="#699F24"/>
</svg>
