<svg xmlns="http://www.w3.org/2000/svg" viewBox="0 0 40 40">
  <path d="M24.407 28.644l-18.43-18.43C4.745 8.982 4.69 7.036 5.857 5.87c1.168-1.167 3.113-1.114 4.347.12L28.63 24.417l-.32-11.506c-.045-1.69 1.293-3.03 2.99-2.98 1.698.047 3.11 1.46 3.158 3.158l.524 18.926c.003.1 0 .203-.007.304-.002.044-.01.086-.016.128-.01.056-.01.108-.02.168l-.04.148c-.016.044-.02.093-.038.135-.015.042-.036.09-.043.14-.014.043-.028.086-.05.135-.014.042-.04.084-.056.126-.014.04-.035.09-.064.134l-.07.114-.075.135c-.028.04-.06.08-.09.124-.03.035-.053.072-.08.107-.06.076-.127.148-.196.217-.076.076-.148.14-.226.2-.032.028-.07.05-.104.08-.043.03-.085.063-.13.09-.042.03-.087.056-.134.08-.04.025-.076.05-.12.07-.045.027-.09.047-.133.066l-.135.06c-.047.02-.09.035-.137.046l-.15.05-.135.03c-.05.01-.103.026-.153.032-.05.01-.105.01-.16.02-.046.004-.087.01-.138.02-.093.005-.19.007-.29.007 0 0-6.313-.178-18.935-.525-.85-.03-1.626-.39-2.198-.962-.57-.57-.933-1.35-.956-2.197-.045-1.7 1.29-3.04 2.99-2.99l11.505.32z" fill="#ea4e4b"/>
</svg>
