<svg viewBox="0 0 26 40" xmlns="http://www.w3.org/2000/svg">
  <path d="M12.202 30.686c2.394 0 4.37 1.97 4.37 4.37 0 2.402-1.973 4.37-4.37 4.37-2.398 0-4.37-1.966-4.37-4.37 0-2.4 1.972-4.37 4.37-4.37zM12.466 0C19.286 0 26 3.14 26 10.653c0 6.928-7.94 9.592-9.644 12.096-1.28 1.86-.852 4.475-4.37 4.475-2.29 0-3.41-1.863-3.41-3.568 0-6.346 9.323-7.78 9.323-13.006 0-2.874-1.917-4.58-5.115-4.58-6.82 0-4.157 7.03-9.322 7.03C1.6 13.106 0 11.988 0 9.858 0 4.63 5.965 0 12.466 0z" fill-rule="evenodd"/>
</svg>
