<svg xmlns="http://www.w3.org/2000/svg" viewBox="0 0 36 32">
	<path d="M2.77 0h18.674c.108 0 .581.067.852.186.309.135.607.329.852.588.255.27.468.607.611.974.152.39.248.824.241 1.252a3.949 3.949 0 01-.34 1.496c-.122.28-.309.523-.512.73-.251.255-.54.47-.852.606a2.111 2.111 0 01-.844.168H2.769a2.47 2.47 0 01-.923-.184A2.922 2.922 0 01.151 4 3.085 3.085 0 010 3c.001-.338.043-.686.16-1 .17-.46.43-.896.763-1.236.26-.265.588-.453.923-.587A2.5 2.5 0 012.77 0z" fill="#383632"/>
	<path d="M35.672 10.623c-.405-.24-1.36.377-1.36.377L31 13.013l-3.69 2.199c-.423.252-.657.445-.661.788-.005.323.227.534.602.758C30.999 19 31 19.013 31 19.013L34.327 21c.377.225.97.58 1.327.372.354-.206.345-.86.345-1.372v-8s.078-1.138-.328-1.377z" fill="#009ba9"/>
	<path d="M2.77 26h18.674c.108 0 .581.067.852.186.309.135.607.329.852.588.255.27.468.607.611.974.152.39.248.824.241 1.252a3.949 3.949 0 01-.34 1.496c-.122.28-.309.523-.512.73-.251.255-.54.47-.852.606a2.111 2.111 0 01-.844.168H2.769a2.47 2.47 0 01-.923-.184A2.922 2.922 0 01.151 30 3.085 3.085 0 010 29c.001-.338.043-.686.16-1 .17-.46.43-.896.763-1.236.26-.265.588-.453.923-.587A2.5 2.5 0 012.77 26z" fill="#383632"/>
	<path d="M2.77 13h18.674c.108 0 .581.067.852.186.309.135.607.329.852.588.255.27.468.607.611.974.152.39.248.824.241 1.252a3.949 3.949 0 01-.34 1.496c-.122.28-.309.523-.512.73-.251.255-.54.47-.852.606a2.111 2.111 0 01-.844.168H2.769a2.47 2.47 0 01-.923-.184A2.922 2.922 0 01.151 17 3.085 3.085 0 010 16c.001-.338.043-.686.16-1 .17-.46.43-.896.763-1.236.26-.265.588-.453.923-.587A2.5 2.5 0 012.77 13z" fill="#009ba9"/>
</svg>
