<svg viewBox="0 0 40 40" xmlns="http://www.w3.org/2000/svg">
  <path d="M20.008 20.99c-4.93 0-8.928-4.68-8.928-10.45 0-8.004 3.997-10.45 8.928-10.45 4.93 0 8.93 2.446 8.93 10.45 0 5.77-4 10.45-8.93 10.45zm19.716 15.77c.31.7.247 1.5-.17 2.142-.417.642-1.123 1.025-1.89 1.025H2.35c-.765 0-1.47-.383-1.888-1.025-.417-.64-.48-1.442-.17-2.14l4.505-10.148c.206-.465.567-.85 1.018-1.084l6.99-3.64c.155-.08.34-.064.48.04 1.977 1.496 4.302 2.287 6.723 2.287 2.42 0 4.746-.79 6.723-2.286.14-.102.328-.12.48-.04l6.99 3.64c.45.236.815.62 1.02 1.086l4.506 10.147z"/>
</svg>
