<svg viewBox="0 0 40 40" xmlns="http://www.w3.org/2000/svg">
  <path d="M8 0h24c4.418 0 8 3.582 8 8v24c0 4.418-3.582 8-8 8H8c-4.418 0-8-3.582-8-8V8c0-4.418 3.582-8 8-8zm24 12.896c0-.853-.27-1.55-.817-2.09-.546-.538-1.226-.806-2.04-.806-.996 0-1.888.337-2.675 1.02-.79.68-1.682 1.804-2.68 3.37-.206.337-.457.724-.746 1.166-.29.44-.573.867-.844 1.282l-.334-1.437c-.13-.55-.275-1.09-.436-1.61-.217-.75-.5-1.34-.844-1.77-.342-.43-.748-.79-1.213-1.072-.5-.3-.98-.492-1.43-.58-.45-.09-.99-.14-1.63-.14-.7 0-1.57.13-2.61.39-1.04.26-2.14.654-3.3 1.176l-.43 1.756c.324-.116.724-.24 1.204-.38.48-.13.913-.2 1.303-.2.88 0 1.54.187 1.98.57.44.375.78.91 1.01 1.603.288.866.565 1.74.84 2.62.276.88.624 2.19 1.057 3.92-.48.675-.924 1.24-1.33 1.69-.41.455-.715.756-.91.914-.505-.183-1.04-.347-1.614-.496-.574-.15-1.17-.222-1.79-.222-1.04 0-1.918.336-2.64 1C8.357 25.23 8 26.138 8 27.29c0 .853.277 1.545.835 2.076.558.53 1.23.796 2.02.796 1.046 0 1.946-.33 2.698-1 .75-.667 1.64-1.782 2.663-3.348.322-.492.566-.874.736-1.148.167-.27.44-.683.814-1.244.132.466.263 1.005.394 1.614.128.608.27 1.154.43 1.63.232.764.515 1.36.843 1.79.33.424.737.78 1.214 1.065.436.28.922.46 1.452.57.53.1 1.06.16 1.61.16.75 0 1.6-.12 2.56-.37.95-.244 2.07-.64 3.35-1.19l.43-1.756c-.326.13-.74.26-1.248.39-.504.13-.924.193-1.26.193-.923 0-1.594-.19-2.023-.576-.425-.383-.75-.917-.97-1.597-.257-.86-.528-1.706-.81-2.538-.288-.834-.664-2.24-1.126-4.224.507-.686.957-1.27 1.36-1.75.4-.48.704-.79.91-.93.44.154.963.31 1.562.464.6.155 1.212.23 1.832.23 1.032 0 1.91-.332 2.63-1 .72-.662 1.074-1.56 1.074-2.686z" fill-rule="evenodd"/>
</svg>
