<svg xmlns="http://www.w3.org/2000/svg" viewBox="0 0 40 40">
  <path d="M13.644 6.397c.385-1.01.914-1.94 1.699-2.693 3.142-3.061 8.335-2.292 10.466 1.555 1.603 2.917 3.302 5.77 4.953 8.655 2.757 4.792 5.546 9.585 8.27 14.393 2.293 4.023-.192 9.104-4.744 9.794-2.789.416-5.401-.866-6.844-3.366-2.42-4.216-4.856-8.431-7.276-12.63a1.453 1.453 0 00-.177-.257c-.256-.208-.368-.513-.529-.785-1.074-1.892-2.18-3.767-3.253-5.642-.69-1.219-1.411-2.42-2.1-3.639a6.637 6.637 0 01-.882-3.526c.048-.641.128-1.282.417-1.86" fill="#3c8bd9"/>
  <path d="M13.644 6.397c-.144.577-.272 1.154-.305 1.763-.048 1.346.289 2.596.962 3.766 1.763 3.03 3.526 6.075 5.273 9.12.16.273.289.546.45.802a800.517 800.517 0 01-2.902 4.985c-1.346 2.324-2.693 4.664-4.055 6.988-.064 0-.08-.032-.096-.08-.016-.128.032-.24.064-.369.657-2.404.112-4.536-1.539-6.363-1.01-1.106-2.292-1.731-3.766-1.94-1.924-.272-3.623.225-5.146 1.427-.272.209-.448.513-.769.673-.064 0-.096-.032-.112-.08.77-1.33 1.523-2.66 2.292-3.99a5542.278 5542.278 0 019.537-16.526c.032-.064.08-.112.112-.176" fill="#fabc04"/>
  <path d="M1.767 27.137c.305-.272.593-.56.914-.817 3.895-3.078 9.745-.85 10.594 4.023.209 1.17.097 2.292-.256 3.414a1.678 1.678 0 01-.064.272c-.144.257-.273.53-.433.786-1.427 2.356-3.526 3.526-6.283 3.35C3.08 37.94.597 35.568.164 32.427c-.208-1.523.096-2.95.882-4.264.16-.288.352-.545.529-.833.08-.064.048-.193.192-.193" fill="#34a852"/>
  <path d="M1.767 27.137c-.064.064-.064.177-.176.193-.016-.113.048-.177.112-.257l.064.064" fill="#fabc04"/>
  <path d="M12.955 34.03c-.064-.113 0-.193.064-.273l.064.064-.128.208" fill="#e1c025"/>
</svg>
