<svg viewBox="0 0 40 40" xmlns="http://www.w3.org/2000/svg" fill-rule="evenodd" clip-rule="evenodd" stroke-linejoin="round" stroke-miterlimit="2"><g transform="translate(.000166 13.0140254) scale(.3125)"><clipPath id="a"><path d="M0 0h128v43H0z"/></clipPath><g clip-path="url(#a)"><path d="M125.8018502 14.0851018c-2.2132505-2.8527262-5.6286324-4.5251215-9.2402171-4.5251215-3.6115847 0-7.0259285 1.6723953-9.2402171 4.5251215-1.4647732 2.0907536-2.2340127 4.5905224-2.1956027 7.1421968-.03841 2.5527125.7308295 5.0524814 2.1956027 7.1421968 2.2142886 2.8537644 5.6286324 4.5261596 9.240217 4.5261596 3.6115848 0 7.0269667-1.6723952 9.2402172-4.5261596 1.4647732-2.0897154 2.2329746-4.5894843 2.1966408-7.1421968.0363338-2.5516744-.7318676-5.0514432-2.1966408-7.1421968zm-3.6603759 9.8205206c-.8387928 2.5091119-2.8298878 4.463873-5.5881461 4.5271977-2.7592964.0622866-4.7503914-2.0180858-5.5798412-4.5271977-.593799-1.7357199-.593799-3.6198895 0-5.3566476.8387928-2.5080737 2.8298878-4.463873 5.5798412-4.5261596 2.7489153-.0622866 4.7493533 2.0180859 5.5881461 4.5261596.5917227 1.7336437.5917227 3.614699 0 5.3483428v.0083048zm-84.144006 8.3920813c0 .3633385-.2979376.661276-.660238.661276h-3.8389308c-.3623003 0-.661276-.2979375-.661276-.661276V.7381216c0-.3623004.2989757-.660238.661276-.660238h3.8389308c.3623004 0 .660238.2979376.660238.660238v31.559582zm-9.0170235 0c0 .3633385-.2979375.661276-.660238.661276h-3.8389307c-.3623004 0-.661276-.2979375-.661276-.661276V.7381216c0-.358148.292747-.6550474.651933-.660238h3.8389308c.3623004 0 .661276.2979376.661276.660238v31.559582h.008305zm75.2785467-21.4265904v2.6783238c.0041524.0311433.0062286.0622866.0062286.0934299 0 .3820245-.3135092.6955337-.6955337.6955337-.0695533 0-.1370305-.009343-.2034695-.0301052-4.3382617-.8927746-7.0082806 1.0360338-7.0082806 5.0441765v12.9452317l-.660238.661276h-3.8389308l-.660238-.661276v-13.221369c-.0467149-2.5277978.9820521-4.9600896 2.829888-6.6875046 1.8758647-1.8333023 4.4026244-2.8548025 7.0259284-2.8381927.8990033.0020762 1.7948922.086163 2.6783238.2491464.4557303.1526021.5263218.4204345.5263218 1.1076633v-.0363338zM87.823634 21.2189938c.0487911-2.5537506-.7214865-5.057672-2.1966408-7.1421968-2.2132505-2.8537644-5.6286324-4.5261596-9.2402171-4.5261596-3.6115847 0-7.0259285 1.6723952-9.2402171 4.5261596-2.963804 4.2884324-2.963804 9.9959611 0 14.2843936 2.180031 2.8942506 5.6172132 4.578065 9.240217 4.5261596 2.3409381.0072667 4.6320469-.6820383 6.5795413-1.981752v2.8205448c0 3.830626-3.3479048 4.5271977-5.4905638 4.661114-1.4741162.0487911-4.4098913-.2418797-4.4098913-.2418797l-.9997.6342852v3.3925435l.5792654.5543507.028029-.001038s8.3204517.3394619 10.8378684-1.0983205c1.7637489-1.0422624 3.0728056-2.709467 3.6697189-4.6683806.4453492-1.5125263.6581617-3.0842248.633247-4.661114V21.2189939h.009343zm-11.436858 7.1951404c-2.7582582 0-4.7493532-2.0170478-5.588146-4.5261596-.593799-1.73572-.593799-3.6209277 0-5.3566476.8387928-2.5080738 2.8298878-4.5261596 5.588146-4.5261596 6.1694878 0 6.3750336 6.2940609 6.3750336 7.2044834 0 .9104224-.2055458 7.2044834-6.3750335 7.2044834zm-56.0838927-9.5080495s-.678924-5.3566476-2.142659-6.954299c-1.4637351-1.5976512-4.4098913-2.3928435-7.1421968-2.3928435-2.7416485-.010381-7.8117778 2.0803725-7.8117778 2.0803725l-.2408415.4287394.2055458 3.3562096.5886084.4951785.3934437-.1463735s7.3653904-2.4468253 9.409429-1.4107915c1.1450353.6591999 1.8333023 1.9028556 1.7855492 3.2233316v.491026H9.7681431c-2.4011485 0-9.758234.8927746-9.758234 7.6508707v.0716296c-.1162684 2.0834867.7713157 4.1026107 2.3835005 5.427239 1.7388343 1.2249699 3.841007 1.8260355 5.963942 1.7056148h11.2935987l.661276-.660238V18.880132l-.009343.0259528zm-4.954899 9.9014932H8.6791657c-.8554027-.0249147-1.6827763-.3145474-2.3658527-.830488-.7131816-.500369-1.132578-1.3246284-1.1159683-2.1966408 0-1.2052457.811802-3.6157371 4.8739265-3.6157371h5.2767131v6.6428659zM52.1302978 9.5589422c-6.8297257 0-9.8205206 4.5801414-10.7755818 8.4543679-.2626418 1.0453767-.3944818 2.1187825-.3934437 3.1963407-.0363338 2.5527125.7318676 5.0524813 2.1966408 7.1421968 2.2163648 2.85065 5.6296705 4.5220071 9.2402171 4.5261596 3.6873667.1339162 6.1508018-.491026 8.0349714-1.5623556.3757958-.2418796.556427-.6996861.4463873-1.1336161v-2.973147c0-.6062563-.3664528-.8927746-.8927746-.5263218-2.2049456 1.4128677-4.822021 2.0419624-7.427677 1.7855492-3.057234-.0404863-5.6317468-2.3803862-5.963942-5.4189342h15.1771682c.339462 0 .6197517-.2771754.6249422-.6166374.2678324-4.1514018-.9374133-12.873602-10.2669079-12.873602zm-5.455268 9.3834763c.123535-2.7406104 2.4115295-4.9289463 5.1552542-4.9289463.102773 0 .206584.0031144.3093568.009343.09343-.0051905.1868598-.0083048.2802897-.0083048 2.5174168 0 4.5884462 2.0710294 4.5884462 4.5884462 0 .113154-.0041524.226308-.0124573.339462H46.6750298z" fill="#ff5a00" fill-rule="nonzero"/></g></g></svg>