<svg xmlns="http://www.w3.org/2000/svg" viewBox="0 0 40 40">
  <path d="M36.174 19.304c-1.07 0-2.016.535-2.587 1.352l-2.326-.403c.01-.088.01-.175.01-.263 0-1.033-.2-2.018-.57-2.92l3.94-2.376c.53.403 1.19.643 1.91.643 1.74 0 3.157-1.415 3.157-3.155 0-1.74-1.415-3.155-3.155-3.155-1.74 0-3.154 1.416-3.154 3.155 0 .185.017.366.047.542l-3.92 2.365c-1.19-1.45-2.893-2.47-4.83-2.76V7.49c1.445-.483 2.49-1.85 2.49-3.455 0-2.01-1.634-3.645-3.644-3.645s-3.65 1.64-3.65 3.65c0 1.607 1.046 2.973 2.49 3.457v4.84c-2.64.396-4.845 2.132-5.905 4.49L9.25 14.61c.022-.18.034-.36.034-.544 0-2.476-2.014-4.49-4.49-4.49-2.475 0-4.49 2.014-4.49 4.49 0 2.476 2.015 4.49 4.49 4.49 1.468 0 2.772-.708 3.592-1.8l7.463 2.294c-.04.308-.06.62-.06.94 0 2.075.82 3.962 2.16 5.353l-3.26 3.46c-.476-.212-1-.33-1.55-.33-2.11 0-3.825 1.714-3.825 3.822s1.717 3.822 3.825 3.822 3.823-1.714 3.823-3.822c0-.717-.2-1.388-.544-1.962l3.36-3.575c1.11.618 2.39.97 3.745.97 1.296 0 2.52-.322 3.595-.89l3.354 5.097c-.818.814-1.324 1.938-1.324 3.18 0 2.475 2.016 4.49 4.49 4.49 2.477 0 4.49-2.015 4.49-4.49 0-2.476-2.013-4.49-4.49-4.49-.402 0-.792.054-1.165.154l-3.49-5.31c.823-.82 1.463-1.83 1.852-2.95l2.21.38c.22 1.53 1.535 2.71 3.124 2.71 1.74 0 3.157-1.42 3.157-3.16s-1.414-3.15-3.152-3.15zm-18.078.686c0-2.996 2.437-5.433 5.432-5.433 2.996 0 5.433 2.437 5.433 5.433 0 2.995-2.43 5.432-5.43 5.432-2.99 0-5.43-2.437-5.43-5.432z"/>
</svg>
