<svg xmlns="http://www.w3.org/2000/svg" viewBox="0 0 40 40">
  <path d="M39.064 25.92c0 2.632-2.134 4.766-4.766 4.766v.037H14.043c-3.29 0-5.958-2.666-5.958-5.957 0-2.886 2.053-5.292 4.778-5.84 0-.038-.012-.076-.012-.117 0-3.95 3.2-7.15 7.15-7.15 2.79 0 5.178 1.61 6.357 3.935.624-.22 1.285-.363 1.985-.363 3.266 0 5.91 2.625 5.95 5.883h.01v.037c2.63 0 4.765 2.134 4.765 4.766zM10.61 17.166c.55-3.17 2.692-5.78 5.553-7.047-.99-.53-2.11-.845-3.312-.845-3.946 0-7.146 3.2-7.146 7.15 0 .04.012.078.012.117-2.725.547-4.778 2.953-4.778 5.84 0 3.162 2.472 5.72 5.58 5.92-.507-1.078-.814-2.27-.814-3.538 0-3.318 1.98-6.274 4.908-7.6z"/>
</svg>
