<svg xmlns="http://www.w3.org/2000/svg" viewBox="0 0 234 78">
	<path fill="#414042" d="M0 0v78h234V0H0zm228 72H6V6h222v66z"/>
	<path fill="#414042" d="M188.4 54.6A15.6 15.6 0 1 0 172.8 39a15.6 15.6 0 0 0 15.6 15.6zm0-25.2c5 0 9 4.3 9 9.6s-4 9.6-9 9.6-9-4.3-9-9.6 4.03-9.6 9-9.6z"/>
	<path fill="#414042" d="M138 34.2L152.4 54h6.6V24h-6.6v19.8L138 24h-6.6v30h6.6V34.2z"/>
	<path fill="#414042" d="M97.2 48H108l2.42 6.06h7.2L105.6 24l-6-.06L87.6 54h7.2zm5.39-13.47l3 7.47h-6z"/>
	<path fill="#414042" d="M67.8 24h6.6v30h-6.6z"/>
	<path fill="#414042" d="M54 45a9 9 0 0 0-3-6.66A9 9 0 0 0 43.8 24H30v30h15a9 9 0 0 0 9-9zM36.6 30h6.6a3 3 0 0 1 0 6h-6.6v-6zm0 18v-6h7.8a3 3 0 0 1 0 6h-7.8z"/>
</svg>
