<svg viewBox="0 0 40 40" xmlns="http://www.w3.org/2000/svg" fill-rule="evenodd" clip-rule="evenodd" stroke-linejoin="round" stroke-miterlimit="2"><path d="M37.793,36.404L33.312,8.994C33.286,8.713 33.21,8.57 32.843,8.536L29.383,8.225L26.741,6.677L26.035,6.278C25.788,6.141 25.521,6.053 25.246,6.012C24.065,13.996 24.136,25.663 25.162,37.811L25.873,39.976C26.122,39.94 26.365,39.866 26.594,39.758L27.985,39.073L31.343,37.421L37.242,37.04C37.662,37.014 37.856,36.799 37.793,36.404Z" fill="#163751" fill-rule="nonzero"/><path d="M21.597,14.286C21.354,14.286 21.154,14.092 21.148,13.848L21.072,10.952C20.956,7.911 22.613,4.903 24.923,3.958C26.065,3.491 27.262,3.559 28.294,4.149C29.577,4.884 30.464,6.354 30.727,8.184L31.06,10.496C31.095,10.742 30.924,10.97 30.678,11.005C30.432,11.04 30.204,10.869 30.169,10.624L29.836,8.312C29.612,6.757 28.887,5.524 27.847,4.928C27.061,4.479 26.144,4.429 25.264,4.789C24.323,5.173 23.469,6.005 22.858,7.129C22.236,8.274 21.922,9.62 21.97,10.921L22.046,13.821C22.053,14.069 21.856,14.276 21.609,14.282C21.605,14.286 21.601,14.286 21.597,14.286Z" fill="#163751" fill-rule="nonzero"/><path d="M24.358,6.048L23.465,6.256L6.403,10.26C6.097,10.332 5.867,10.581 5.82,10.891L2.202,35.05C2.152,35.385 2.376,35.698 2.709,35.761L25.087,39.961C25.348,40.009 25.614,40.012 25.873,39.975L25.245,6.01C24.952,5.967 24.652,5.978 24.358,6.048Z" fill="#fd1314" fill-rule="nonzero"/><path d="M9.55,11.211C9.529,11.211 9.509,11.21 9.489,11.207C9.191,11.173 8.977,10.906 9.011,10.607L9.269,8.317C9.658,4.844 12.121,1.416 14.995,0.345C15.276,0.241 15.588,0.383 15.693,0.664C15.797,0.945 15.655,1.257 15.374,1.362C12.898,2.285 10.687,5.394 10.345,8.439L10.087,10.729C10.056,11.006 9.821,11.211 9.55,11.211Z" fill="#163751" fill-rule="nonzero"/><path d="M20.508,9.028L20.499,9.028C20.199,9.023 19.961,8.776 19.967,8.477L20.021,5.334C20.056,3.646 19.524,2.325 18.525,1.616C17.675,1.013 16.556,0.924 15.374,1.363C15.093,1.468 14.781,1.325 14.676,1.044C14.571,0.763 14.714,0.451 14.995,0.347C16.524,-0.224 18.001,-0.087 19.152,0.731C20.454,1.655 21.146,3.297 21.104,5.355L21.05,8.496C21.046,8.791 20.804,9.028 20.508,9.028Z" fill="#163751" fill-rule="nonzero"/><path d="M6.173 17.243L12.991 17.243C14.679 17.243 15.739 17.629 16.452 18.346 16.886 18.783 17.2 19.413 17.2 20.253L17.2 20.288C17.2 21.741 16.33 22.634 15.026 23.089 16.592 23.544 17.6 24.384 17.6 26.065L17.6 26.1C17.6 28.061 16 29.496 12.922 29.496L6.175 29.496 6.175 17.243 6.173 17.243zM11.912 22.056C12.782 22.056 13.199 21.759 13.199 21.216L13.199 21.18C13.199 20.637 12.764 20.34 11.894 20.34L10.138 20.34 10.138 22.056 11.912 22.056zM12.173 26.398C13.059 26.398 13.511 26.03 13.511 25.504L13.511 25.469C13.511 24.944 13.077 24.576 12.189 24.576L10.138 24.576 10.138 26.396 12.173 26.396 12.173 26.398zM20.192 15.205L20.544 15.205C21.658 15.205 22.562 16.11 22.562 17.224 22.562 18.339 21.658 19.243 20.544 19.243L20.192 19.243C19.077 19.243 18.173 18.339 18.173 17.224 18.173 16.11 19.076 15.205 20.192 15.205z" fill="#fff" fill-rule="nonzero"/><path fill="#fff" d="M18.434 19.938H22.382V29.496H18.434z"/><path d="M23.244,31.141L24.462,28.743C25.522,29.304 26.584,29.653 27.888,29.653C29.367,29.653 30.149,28.883 30.149,27.553L30.149,27.273C29.61,27.885 28.723,28.586 27.401,28.586C24.949,28.586 23.175,26.836 23.175,24.193L23.175,24.156C23.175,21.478 24.983,19.71 27.174,19.71C28.566,19.71 29.383,20.235 30.078,20.952L30.078,19.937L34.026,19.937L34.026,27.078C34.026,28.845 33.661,30.054 32.79,30.928C31.938,31.786 30.635,32.328 28.513,32.328C26.408,32.33 24.774,31.911 23.244,31.141ZM30.165,24.174L30.165,24.139C30.165,23.316 29.539,22.651 28.582,22.651C27.609,22.651 26.999,23.333 26.999,24.174L26.999,24.209C26.999,25.032 27.625,25.679 28.582,25.679C29.557,25.679 30.165,25.014 30.165,24.174Z" fill="#fff" fill-rule="nonzero"/></svg>