<svg xmlns="http://www.w3.org/2000/svg" width="40" height="40" viewBox="0 0 40 40.000001">
  <path d="M39.9 16.02c0 4.394-8.91 7.96-19.9 7.96C9.01 23.98.1 20.414.1 16.02h1.592c0 3.517 8.195 6.368 18.308 6.368s18.308-2.85 18.308-6.368H39.9z"/>
  <path d="M39.9 23.98c0 4.394-8.91 7.96-19.9 7.96C9.01 31.94.1 28.374.1 23.98h1.592c0 3.517 8.195 6.368 18.308 6.368s18.308-2.85 18.308-6.368H39.9z"/>
  <path d="M39.9 31.94c0 4.394-8.91 7.96-19.9 7.96C9.01 39.9.1 36.334.1 31.94h1.592c0 3.517 8.195 6.368 18.308 6.368s18.308-2.85 18.308-6.368H39.9zM20 .1C9.01.1.1 3.666.1 8.06s8.91 7.96 19.9 7.96c10.99 0 19.9-3.566 19.9-7.96S30.99.1 20 .1zm0 14.328c-10.113 0-18.308-2.85-18.308-6.368 0-3.517 8.195-6.368 18.308-6.368s18.308 2.85 18.308 6.368c0 3.517-8.195 6.368-18.308 6.368z"/>
  <path d="M36.716 8.734c-3.257 2.45-9.523 4.102-16.716 4.102-7.193 0-13.46-1.657-16.716-4.102v-.93C6.144 10.302 12.552 12.04 20 12.04s13.857-1.738 16.716-4.236v.93zM.1 8.06h1.592v24.676H.1V8.06zm38.208 0H39.9v24.676h-1.592V8.06zm-3.98 23.084l1.592-.796v2.388l-1.592.796v-2.388z"/>
</svg>
