<svg viewBox="0 0 40 40" xmlns="http://www.w3.org/2000/svg">
  <g fill-rule="evenodd">
    <path d="M23.364 26.206c0 1.464 1.158 2.336 3.168 2.336 1.977 0 2.93-.977 2.93-2.895v-1.812H27.83c-3.477 0-4.464.836-4.464 2.37"/>
    <path d="M19.992.098C8.968.098.03 7.37.03 16.34v7.272c0 8.97 8.938 16.242 19.962 16.242 11.025 0 19.96-7.272 19.96-16.242V16.34c0-8.97-8.935-16.242-19.96-16.242zm-6.48 24.062h-1.976v7.87h-1.84c-1.466 0-2.76-1.152-2.76-2.79V16.81c0-3.837 1.738-8.64 6.96-9.83 5.286-1.205 6.765 1.445 6.765 1.445s-3.305-.046-5.896 2.027c-1.476 1.18-3.175 3.783-3.226 6.742v3.655c3.263.64 5.875-.474 6.646-.825l.132-.017s-.234 4.15-4.802 4.15zm20.415 1.452c0 3.976-2.862 6.73-6.95 6.73h-.922c-4.362 0-7.36-2.51-7.36-5.962 0-3.347 2.385-5.893 9.133-5.893h1.6v-.245c0-2.65-1.226-4.533-3.953-4.533-3.305 0-5.144 1.29-5.826 2.16h-.17v-1.5c0-2.09 1.84-4.6 6.675-4.6 4.09 0 7.77 3.032 7.77 9.52v4.32z"/>
  </g>
</svg>
