<svg xmlns="http://www.w3.org/2000/svg" viewBox="0 0 52.039 23.404">
	<path d="M29.289 12.172c.382 1.958 1.854 2.477 4.187 2.477 2.332 0 3.804-.519 4.187-2.477L39.938.577c.039-.212-.038-.384-.286-.384h-3.978c-.21 0-.362.172-.401.384l-1.625 10.155c-.019.153-.038.25-.172.25-.134 0-.153-.097-.172-.25L31.679.577c-.038-.212-.191-.384-.402-.384H27.3c-.248 0-.324.172-.286.384zm0 0M10.206 14.457c.21 0 .382-.174.382-.385V9.004h3.568s.14.01.207-.043c.077-.06.099-.179.099-.179l.577-2.943s.048-.147-.031-.237c-.063-.072-.254-.073-.254-.073h-4.166V4.492c0-.48.153-.614.63-.614h3.984s.108.006.188-.058c.057-.045.075-.143.075-.143l.553-2.824V.595c0-.21-.173-.364-.383-.384C14.851.116 12.882 0 11.22 0c-2.41 0-5.144.557-5.144 4.492v4.661c.9 1.853 1.437 4.364 1.618 5.304zm0 0M21.385 3.932c.019-.153.038-.25.172-.25.134 0 .153.097.172.25l.707 4.473h-1.758zm-6.004 10.54h3.977c.211 0 .363-.173.402-.385l.344-2.15h2.906l.344 2.15c.039.212.191.384.402.384h3.977c.248 0 .324-.172.286-.384L25.744 2.492C25.362.534 23.89.015 21.557.015c-2.332 0-3.804.519-4.187 2.477l-2.275 11.595c-.039.212.038.384.286.384M46.099 4.684c0-3.393-2.031-4.274-4.136-4.452-.126-.01-.197-.028-.278.048-.12.111-.1.279-.1.279v13.705c0 .211.173.384.384.384h2.341c.14-.761.734-3.75 1.789-5.764zm0 0" fill="#87142e" />
	<path d="M47.466 21.428c1.226-.071 2.538-.29 2.847-.473 1.318-1.499 1.72-9.181 1.726-13.374a23.284 23.284 0 0 0-1.245-.035c-1.809 0-2.76.246-3.047.476-1.26 1.009-2.298 4.672-2.656 6.745l-.12.687H7.068l-.118-.686c-.36-2.074-1.4-5.74-2.657-6.746-.287-.23-1.238-.476-3.047-.476-.467 0-.901.016-1.245.035.007 4.193.408 11.875 1.726 13.374.31.184 1.621.403 2.847.473l.629.036.131.618.282 1.322h1.49l.274-1.194.148-.643h36.985l.148.643.274 1.194h1.49l.282-1.322.132-.618zm0 0" fill="#87142e" />
</svg>
