<svg viewBox="0 0 40 40" xmlns="http://www.w3.org/2000/svg" fill-rule="evenodd" clip-rule="evenodd" stroke-linejoin="round" stroke-miterlimit="2"><path d="M7.316,28.074C5.313,28.438 3.905,30.191 4.005,32.196C4.097,33.989 5.313,35.466 7.061,35.906C7.588,36.038 8.46,36.03 9,35.886C10.408,35.51 11.488,34.429 11.86,33.025C11.996,32.512 12.012,31.656 11.896,31.155C11.684,30.243 11.2,29.471 10.484,28.89C9.608,28.186 8.404,27.878 7.316,28.074ZM9.992,4L9.992,7.99L10.74,8.018C15.727,8.198 20.366,9.987 24.19,13.205C24.882,13.79 26.206,15.114 26.789,15.807C29.861,19.461 31.609,23.803 31.949,28.634C31.969,28.942 31.989,29.378 31.989,29.603L31.989,30.015L36,30.015L35.972,29.242C35.86,26.053 35.26,23.159 34.128,20.349C30.681,11.788 23.01,5.685 13.951,4.304C12.816,4.132 11.26,4 10.324,4L9.992,4ZM9.992,19.997L9.992,23.995L10.512,24.043C12.38,24.224 13.979,25.168 15.019,26.717C15.523,27.461 15.907,28.538 15.971,29.378L16.035,30.015L20.034,30.015L20.011,29.623C19.943,28.534 19.731,27.457 19.415,26.593C19.063,25.636 18.427,24.516 17.771,23.711C17.375,23.223 16.539,22.418 16.051,22.046C14.411,20.818 12.568,20.149 10.444,20.025L9.992,19.997ZM9.992,12.005L9.992,15.995L10.544,16.023C13.008,16.143 15.207,16.799 17.251,18.028C18.219,18.612 19.079,19.293 19.931,20.149C21.946,22.17 23.298,24.76 23.786,27.533C23.91,28.214 23.99,28.978 23.99,29.434C23.99,29.655 24.002,29.875 24.014,29.927L24.038,30.015L26.026,30.007L28.009,29.995L27.997,29.475C27.913,26.033 26.773,22.587 24.766,19.705C24.026,18.64 22.878,17.36 21.878,16.483C19.155,14.094 15.823,12.597 12.232,12.149C11.728,12.085 10.592,12.005 10.204,12.005L9.992,12.005Z" fill-rule="nonzero"/></svg>
