<svg viewBox="0 0 40 40" xmlns="http://www.w3.org/2000/svg" fill-rule="evenodd" clip-rule="evenodd" stroke-linejoin="round" stroke-miterlimit="2"><path d="M40,4C40,1.792 38.208,0 36,0L4,0C1.792,0 0,1.792 0,4L0,36C0,38.208 1.792,40 4,40L36,40C38.208,40 40,38.208 40,36L40,4Z" fill="#25221f"/><path d="M21.78,10.56C23.59,10.93 25.13,11.68 26.45,12.84L26.85,13.19L26.09,13.96L25.32,14.73L24.69,14.22C24.02,13.67 23.18,13.22 22.18,12.87C21.64,12.68 21.34,12.65 20.05,12.65C18.78,12.65 18.45,12.68 17.88,12.87C16.56,13.3 15.56,13.95 14.6,14.97C13.81,15.81 13.29,16.67 12.93,17.75C12.68,18.48 12.66,18.68 12.66,20.05C12.66,21.33 12.69,21.64 12.87,22.18C13.55,24.14 14.74,25.6 16.43,26.54C18.99,27.97 22.21,27.74 24.55,25.97C25.95,24.9 27.07,23.1 27.35,21.47L27.41,21.1L20.1,21.1L20.1,18.9L29.6,18.9L29.58,24.17L29.55,29.45L27.55,29.45L27.52,27.88C27.51,27.01 27.47,26.3 27.43,26.3C27.4,26.3 27.05,26.61 26.65,26.98C25.41,28.16 24.04,28.93 22.36,29.37C21.13,29.69 19.02,29.7 17.84,29.4C16.85,29.14 16.3,28.94 15.6,28.57C12.25,26.8 10.25,23.32 10.43,19.6C10.58,16.74 11.83,14.3 14.07,12.5C14.79,11.91 16.39,11 16.69,11C16.75,11 16.88,10.95 16.98,10.9C17.07,10.84 17.56,10.71 18.05,10.6C19.18,10.37 20.75,10.35 21.78,10.56Z" fill="#fff" fill-rule="nonzero"/></svg>