<svg xmlns="http://www.w3.org/2000/svg" viewBox="0 0 40 40" width="40" height="40">
  <path d="M2.446 11.124C1.154 13.776.41 16.797.41 19.967s.727 6.158 2.02 8.81l6.625-5.118c-.378-1.164-.587-2.4-.587-3.694 0-1.293.22-2.545.598-3.707z" fill="#fbbc05"/>
  <path d="M20.108.077c-7.785 0-14.475 4.5-17.68 11.08l6.63 5.118c1.53-4.69 5.883-8.06 11.05-8.06 2.776 0 5.283.994 7.253 2.62l5.733-5.785C29.6 1.976 25.123.077 20.108.077z" fill="#ea4335"/>
  <path d="M20.108 16.35v7.685h10.567c-.985 4.882-5.105 7.685-10.567 7.685-5.173 0-9.533-3.38-11.056-8.077l-6.627 5.13c3.204 6.58 9.896 11.083 17.683 11.083 9.85 0 18.804-7.232 18.804-19.89 0-1.175-.18-2.44-.448-3.615H20.108z" fill="#34a853"/>
  <path d="M20.108 16.35v7.685h10.567c-.53 2.62-1.967 4.635-4.024 5.945l6.294 4.92c3.616-3.394 5.97-8.45 5.97-14.933 0-1.176-.18-2.44-.45-3.616H20.11z" fill="#4285f4"/>
</svg>
