<svg xmlns="http://www.w3.org/2000/svg" viewBox="0 0 40 40">
  <path d="M18.327.266A16.622 16.715 0 0 0 1.705 16.98a16.622 16.715 0 0 0 16.622 16.716 16.622 16.715 0 0 0 8.043-2.09l6.843 7.28a2.89 2.905 0 1 0 4.198-3.99l-6.55-6.97a16.622 16.715 0 0 0 4.09-10.945 16.622 16.715 0 0 0-5.09-12.03 2.476 2.49 0 0 0-.89-.79A16.622 16.715 0 0 0 18.328.27zm-.086 4.412a12.227 12.296 0 0 1 6.547 1.926L18.15 17.527l-2.508-3.475a2.476 2.49 0 1 0-4.008 2.925l4.69 6.496a2.476 2.49 0 0 0 4.117-.164l7.98-13.14a12.227 12.296 0 0 1 2.05 6.8 12.227 12.296 0 0 1-12.23 12.3 12.227 12.296 0 0 1-12.225-12.3A12.227 12.296 0 0 1 18.24 4.678z" fill="#F27B30" fill-rule="evenodd"/>
</svg>
