<svg viewBox="0 0 40 40" xmlns="http://www.w3.org/2000/svg" fill-rule="evenodd" clip-rule="evenodd" stroke-linejoin="round" stroke-miterlimit="2"><path d="M40 4c0-2.208-1.792-4-4-4H4C1.792 0 0 1.792 0 4v32c0 2.208 1.792 4 4 4h32c2.208 0 4-1.792 4-4V4z" fill="#435b6a"/><path d="M13.185 9.244c.665.309.76.475 4.49 8.505l2.257 4.847.974-2.115c3.374-7.34 5.132-10.88 5.56-11.19.736-.498 3.967-.45 4.632.072.261.237 2.423 4.585 4.799 9.693 3.207 6.913 4.253 9.336 4.086 9.621-.19.262-.76.38-2.4.428-1.947.048-2.185.024-2.731-.475-.357-.333-1.687-2.946-3.303-6.557-1.472-3.279-2.732-5.987-2.827-5.987-.07 0-1.354 2.708-2.827 5.987-1.496 3.302-2.946 6.248-3.254 6.533-.476.5-.76.547-2.685.547-1.996 0-2.21-.048-2.685-.57-.285-.333-1.758-3.327-3.23-6.676-1.497-3.326-2.804-5.987-2.899-5.892-.095.119-1.378 2.85-2.827 6.13-1.497 3.325-2.922 6.176-3.255 6.461-.499.475-.831.547-2.542.547-1.924 0-2.518-.214-2.518-.856 0-.356 8.244-18.126 8.624-18.601.142-.167.475-.404.76-.5.713-.308 3.112-.284 3.801.048z" fill="#fff" fill-rule="nonzero"/><path d="M13.16 9.283c.663.308.758.474 4.48 8.488 0 0 5.265 10.552 4.956 10.836-.474.498-.758.545-2.679.545-1.992 0-2.205-.047-2.68-.569-.284-.332-1.754-3.32-3.224-6.662-1.494-3.32-2.798-5.975-2.893-5.88-.094.118-1.375 2.845-2.821 6.117-1.494 3.32-2.917 6.165-3.249 6.45-.497.473-.83.544-2.537.544C.593 29.152 0 28.94 0 28.3c0-.356 8.228-18.091 8.607-18.566.142-.165.474-.403.759-.497.711-.309 3.106-.285 3.793.047z" fill="#f19000" fill-rule="nonzero"/></svg>