<svg xmlns="http://www.w3.org/2000/svg" viewBox="0 0 40 40">
  <g transform="translate(-40.178 -50.42) scale(.23472)">
    <path d="M334.77 339.54c-9.078 4.732-56.106 24.068-66.118 29.287-10.012 5.22-15.574 5.17-23.483 1.39-7.91-3.782-57.96-23.997-66.97-28.306-4.51-2.15-6.88-3.97-6.88-5.68v-17.2s65.15-14.18 75.67-17.95c10.52-3.773 14.16-3.91 23.12-.63 8.95 3.28 62.47 12.936 71.32 16.176l-.01 16.95c0 1.7-2.04 3.566-6.66 5.974z" fill="#a41e11"/>
    <path d="M334.77 322.34c-9.078 4.73-56.106 24.068-66.118 29.287-10.012 5.22-15.574 5.17-23.483 1.39-7.91-3.78-57.96-24-66.97-28.306-9.02-4.3-9.21-7.27-.35-10.74 8.85-3.47 58.62-22.99 69.14-26.77 10.52-3.77 14.16-3.91 23.12-.63 8.95 3.28 55.7 21.89 64.54 25.13 8.844 3.25 9.184 5.92.11 10.65z" fill="#d82c20"/>
    <path d="M334.77 311.5c-9.078 4.732-56.106 24.068-66.118 29.29-10.012 5.218-15.574 5.167-23.483 1.386-7.91-3.78-57.96-23.996-66.97-28.305-4.51-2.15-6.88-3.96-6.88-5.68v-17.2s65.15-14.18 75.67-17.95c10.52-3.77 14.16-3.91 23.12-.63 8.95 3.28 62.47 12.936 71.32 16.177l-.01 16.953c0 1.7-2.04 3.564-6.66 5.972z" fill="#a41e11"/>
    <path d="M334.77 294.3c-9.078 4.732-56.106 24.068-66.118 29.29-10.012 5.218-15.574 5.167-23.483 1.386-7.91-3.78-57.96-23.997-66.97-28.305-9.02-4.3-9.21-7.27-.35-10.74 8.85-3.46 58.62-22.99 69.14-26.77 10.52-3.77 14.16-3.91 23.12-.63 8.95 3.28 55.7 21.89 64.54 25.13 8.844 3.24 9.184 5.92.11 10.65z" fill="#d82c20"/>
    <path d="M334.77 282.42c-9.078 4.732-56.106 24.07-66.118 29.29-10.012 5.22-15.574 5.168-23.483 1.387-7.91-3.78-57.96-23.997-66.97-28.305-4.51-2.154-6.88-3.97-6.88-5.686V261.91s65.15-14.184 75.67-17.957c10.52-3.774 14.16-3.91 23.12-.63 8.95 3.278 62.47 12.933 71.32 16.174l-.01 16.952c0 1.69-2.04 3.56-6.66 5.97z" fill="#a41e11"/>
    <path d="M334.77 265.22c-9.078 4.732-56.106 24.07-66.118 29.29-10.012 5.218-15.574 5.167-23.483 1.387-7.91-3.78-57.96-23.997-66.97-28.305-9.02-4.308-9.21-7.275-.35-10.743 8.85-3.47 58.62-23 69.14-26.77 10.52-3.78 14.16-3.91 23.12-.63 8.95 3.28 55.7 21.88 64.54 25.12 8.844 3.24 9.184 5.91.11 10.64z" fill="#d82c20"/>
    <path fill="#fff" d="M260.63 258.13l-5.33-8.86-17.02-1.53 12.7-4.58-3.81-7.03 11.89 4.65 11.21-3.67-3.03 7.27 11.43 4.28-14.74 1.53m-4.18 36.99l-27.51-11.41 39.42-6.05"/>
    <ellipse cx="221.61" rx="21.069" ry="8.167" cy="261.24" fill="#fff"/>
    <path fill="#7a0c00" d="M296.09 250.83l23.33 9.22-23.31 9.21"/>
    <path fill="#ad2115" d="M270.28 261.04l25.81-10.21.02 18.43-2.53.99"/>
  </g>
</svg>
