<svg viewBox="0 0 40 32" xmlns="http://www.w3.org/2000/svg">
  <path d="M33.183.407c.627-1.28 1.246.65 1.826 3.06.57 2.394 2.03 4.887-1.78 5.233-1.44-.027-2.764-.174-5.634.014-2.556.17-3.107.313-4.854.963-.85.336-.88 1.365-.106 1.907.544.38 3.264 1.498 5.72 2.576 3.04 1.334 7.493 2.988 9.365 4.546 2.834 2.356 2.607 5.9 1.545 7.98-1.18 2.304-4.865 3.664-9.865 4.475-6.644 1.08-19.49.97-24 .507-4.62-.478-5.51-.796-5.395-1.37.114-.577 3.17-.414 5.94-.598 3.547-.235 18.57-1.67 21.975-4.357 2.078-1.64.905-3.044.563-3.33-.87-1.14-4.213-2.762-7.12-4.41-4.24-2.406-7.423-4.452-8.24-6.405-.634-1.51-.547-3.417 1.026-5.136 1.84-2.013 3.994-3.096 6.87-3.875 3.14-.85 4.93-.876 7.46-.975 2.07-.08 4.302 0 4.696-.8" fill="#DB432B"/>
</svg>
