<svg viewBox="0 0 40 40" xmlns="http://www.w3.org/2000/svg" fill-rule="evenodd" clip-rule="evenodd" stroke-linejoin="round" stroke-miterlimit="2"><path d="M7.41553 0l.6845 6H0V0h7.41553z" fill="#238e3c"/><path d="M7.12038 6H8.4646l1.86121 5.2 24.71284-1.1L36.89987 0H6.49997l.62041 6z" fill="#afc944"/><path d="M40 0h-4.1l-1.8 10.1 5.9-.2V0z" fill="#879615"/><path d="M33.87432 10.11243L30.8634 27.2145 40 25.9398V9.89999l-6.12568.21244z" fill="#ec8800"/><path d="M28.69279 40l2.34296-13.8 8.96439-1.2v15H28.69279z" fill="#ae1601"/><path d="M9.54897 28.70007l.65106 11.30003H0v-9.87381l9.54897-1.42622z" fill="#67274a"/><path d="M0 8.9l7.2-1 1.6 21.8L0 31V8.9z" fill="#32afb5"/><path d="M8.8 29.7L9.4 40h19.5l2.3-13.8-22.4 3.5zm4.3.3c1.4902 0 2.7 1.2098 2.7 2.7 0 1.4902-1.2098 2.7-2.7 2.7-1.4902 0-2.7-1.2098-2.7-2.7 0-1.4902 1.2098-2.7 2.7-2.7zM26 30c1.4902 0 2.7 1.2098 2.7 2.7 0 1.4902-1.2098 2.7-2.7 2.7-1.4902 0-2.7-1.2098-2.7-2.7 0-1.4902 1.2098-2.7 2.7-2.7z" fill="#dc3060"/></svg>