<svg xmlns="http://www.w3.org/2000/svg" viewBox="0 0 185 45">
	<g transform="matrix(0.03387958,0,0,0.03387958,0.48306023,40.427895)">
		<g style="fill:#9ea4ab;">
			<path d="M557.5-555c0 17-14 30-30 30h-496c-17 0-30-14-30-30v-445c0-17 14-30 30-30h496c17 0 30 14 30 30v445zm696 0c0 17-14 30-30 30h-496c-17 0-30-14-30-30v-240c0-17 14-30 30-30h496c17 0 30 14 30 30v240z" />
			<path d="M274.5-229c-27-21-50-30-75-30-28 0-49 17-49 38s12 29 72 50c53 19 66 25 87 41 33 23 50 57 50 100 0 95-78 161-189 161-65 0-127-27-170-75l65-77c36 36 70 53 107 53 32 0 57-22 57-50 0-26-12-35-70-56-56-21-66-25-86-39-30-21-45-52-45-93 0-84 66-143 161-143 56 0 103 16 146 48l-61 72zm290-105v69c32-57 74-83 131-83 20 0 32 2 55 11l-18 118c-23-12-35-17-60-17-73 0-108 45-108 135v216h-126v-450h126zm726 225c0 142-106 240-260 240-151 0-255-99-255-243 0-137 108-236 259-236s256 97 256 239zm-384-1c0 72 56 128 128 128 70 0 127-56 127-126 0-71-57-127-128-127-69 0-127 57-127 125zm650 31l117-255h142l-232 459h-57l-230-459h141l119 255zm436-255v56c39-51 80-71 141-71 53 0 101 20 131 54 26 30 35 63 35 125v286h-126v-249c0-37-3-57-12-73-12-22-41-35-74-35-64 0-96 39-96 125v233h-126v-450h127zm889 0v450h-126V58c-41 51-85 73-148 73-127 0-221-103-221-240 0-135 96-239 219-239 61 0 106 22 150 73v-58h126zm-365 225c0 71 57 127 127 127 69 0 126-57 126-125 0-72-55-128-126-128s-127 56-127 126zm600-225v52c42-48 82-66 137-66 62 0 106 25 140 82 35-55 84-82 148-82 54 0 102 25 126 64 17 27 24 59 24 109v291h-126v-246c0-36-2-53-10-72-11-25-34-39-63-39-32 0-60 17-74 45-9 20-14 43-14 82v231h-126v-239c0-38-2-58-9-75-10-26-38-44-68-44-28 0-58 17-71 41-10 19-15 43-15 86v231h-126v-450h127zm790 245c3 78 42 121 110 121 48 0 78-18 107-60l116 19c-38 92-114 140-220 140-147 0-242-95-242-239 0-145 92-240 236-240 143 0 231 92 231 243v17h-338zm217-80c-14-58-51-89-107-89s-95 33-106 89h213z" />
			<path d="M2646.5-555c0 17-14 30-30 30h-496c-17 0-30-14-30-30v-603c0-17 14-30 30-30h495c17 0 30 14 30 30v603zm696 0c0 17-14 30-30 30h-497c-17 0-30-14-30-30v-203c0-17 14-30 30-30h496c17 0 30 14 30 30v203zm696 0c0 17-14 30-30 30h-496c-17 0-30-14-30-30v-339c0-17 14-30 30-30h496c17 0 30 14 30 30v339zm697 0c0 17-14 30-30 30h-496c-17 0-30-14-30-30v-239c0-17 14-30 30-30h496c17 0 30 14 30 30v239zm696 0c0 17-14 30-30 30h-496c-17 0-30-14-30-30v-445c0-17 14-30 30-30h496c17 0 30 14 30 30v445z" />
		</g>
		<g style="fill:#e03a29;">
			<path d="M4480.5 48c0 46-36 82-81 82-46 0-82-36-82-82 0-45 37-81 81-81 46-1 82 36 82 81zm436-245c-36-28-64-38-102-38-75 0-130 54-130 127s55 126 130 126c38 0 68-10 102-37v123c-40 21-74 28-115 28-139 0-246-103-246-237 0-137 107-242 247-242 45 0 78 8 114 27v123zm498 204v109h-460l256-343h-216v-109h437l-255 343h238z" />
			<path d="M1950.5-555c0 17-14 30-30 30h-496c-17 0-30-14-30-30v-153c0-17 14-30 30-30h496c17 0 30 14 30 30v153z" />
		</g>
	</g>
</svg>
