<svg xmlns="http://www.w3.org/2000/svg" viewBox="0 0 40 40">
  <path fill="#dd1a21" d="M37.738 15.307c-5.37 2.623-19.364 6.841-21.239 7.474-1.225.412-5.267 1.832-5.483 3.333-.3 2.084 4.46 2.611 7.215 2.936 1.858.218 6.393.708 10.512.492 4.008-.212 9.617-1.053 9.738-.177.14 1.02-6.843 3.48-9.668 4.132-2.408.555-9.864 1.692-14.83 1.575-4.131-.096-10.827-.627-13.236-4.567-.84-1.375-.84-4.124-.049-5.319.877-1.325 1.833-2.645 3.957-3.558 4.048-1.739 22.439-8.43 22.995-8.546 1.23-.26 2.85-1.036-.389-1.295-2.562-.205-5.132-.338-7.702-.337-1.23 0-2.458.044-3.686.105-.988.05-2.124.15-2.892-.608-.682-.673-1.23-1.985-1.385-2.922-.146-.879.177-1.618.893-2.139 1.528-1.112 3.91-.98 5.696-.94.95.023 6.391.443 8.167.586 4.676.379 11.279 1.227 13.293 5.913 1.106 2.573-1.907 3.862-1.907 3.862"/>
</svg>
