<svg xmlns="http://www.w3.org/2000/svg" viewBox="0 0 40 40">
  <path d="M25.339 2.712c6.229 0 12.458 6.05 12.458 12.102v2.593c0 6.05-6.23 12.101-12.458 12.101H4.873c-1.335 0-2.67-1.296-2.67-2.593 0-1.296 1.335-2.593 2.67-2.593h20.466c3.56 0 7.119-3.458 7.119-6.915v-2.593c0-3.458-3.56-6.916-7.119-6.916H4.873c-1.335 0-2.67-1.296-2.67-2.593s1.335-2.593 2.67-2.593zm9.788 29.39c1.335 0 2.67 1.296 2.67 2.593s-1.335 2.593-2.67 2.593H4.873c-1.335 0-2.67-1.296-2.67-2.593s1.335-2.593 2.67-2.593z"/>
</svg>
