<svg viewBox="0 0 32 40" xmlns="http://www.w3.org/2000/svg">
  <path d="M26.258 6H28.6C29.926 6 31 7.06 31 8.368c0 1.31-1.075 2.37-2.4 2.37h-5.412L18.07 18.63H29c1.326 0 2.4 1.062 2.4 2.37s-1.074 2.368-2.4 2.368H15l-4.182 6.455c1.456.9 3.102 1.44 4.76 1.44H28.6c1.326 0 2.4 1.06 2.4 2.37C31 34.94 29.925 36 28.6 36H15.578c-2.617 0-5.153-.807-7.357-2.17l-3.2 4.944C4.507 39.564 3.62 40 2.71 40c-.487 0-.98-.125-1.42-.386-1.276-.748-1.67-2.337-.884-3.55l3.772-5.822C2.21 27.782 1 24.757 1 21.614v-2.807C1 11.745 7.54 6 15.578 6h4.31l3.096-4.775c.785-1.212 2.456-1.59 3.73-.84 1.273.748 1.668 2.338.882 3.55L26.258 6zM7.003 25.882l1.63-2.514H6.007c.2.87.542 1.717.996 2.514zm4.7-7.25l5.116-7.895h-1.247c-4.646 0-9.647 3.015-9.767 7.894H11.7z"/>
</svg>
